<svg viewBox="0 0 125.6 64.95" xmlns="http://www.w3.org/2000/svg"><g fill="#002147"><path d="m9.41 1.53c5.15 0 8.48 3.15 8.48 7.92s-3.34 8.16-8.53 8.16-8.5-3.15-8.5-7.92 3.33-8.16 8.55-8.16m.09 15.2c3.08 0 5.19-3.2 5.19-7.07 0-4.08-2.23-7.25-5.42-7.25s-5.21 3.2-5.21 7.07c0 4.08 2.25 7.25 5.45 7.25"/><path d="m19.31 7c.9.02 1.78.04 2.74.04s1.95-.02 2.87-.07v.74c-.6.02-.88.14-.88.42 0 .14.07.28.3.67.16.28.65 1.04 1.37 2.11.39-.58.79-1.18 1.16-1.76.37-.56.49-.81.49-.99 0-.26-.23-.37-1.09-.44v-.74c.72.05 1.55.07 2.27.07s1.46-.02 2.16-.04v.72c-.97.07-1.51.28-2.02.74-.26.26-.53.6-2.41 3.29 1.16 1.67 2.32 3.25 2.9 3.94.49.6.83.9 1.88 1v.72c-.95-.02-1.83-.07-2.9-.07-.9 0-1.9.02-2.85.07v-.72c.72-.02.93-.16.93-.42 0-.23-.18-.56-.42-.93-.3-.49-.76-1.18-1.48-2.25-.44.65-.9 1.34-1.41 2.11-.3.46-.46.79-.46 1 .02.3.37.44 1.18.49v.72c-.79-.05-1.67-.07-2.41-.07s-1.53.02-2.2.07v-.72c.83-.07 1.46-.23 2.04-.77.49-.49 1.44-1.85 2.69-3.66-.97-1.44-2.11-3.01-2.69-3.69-.46-.51-.86-.76-1.74-.86v-.72z"/><path d="m38.3 17.4c-.95-.05-1.99-.07-2.97-.07s-1.95.02-2.94.07v-.74c.88 0 1.28-.14 1.44-.51.12-.3.16-1.02.16-6.21v-1.78l-1.81-.02v-1.11l1.81-.02c0-.67-.05-1.21-.05-1.71 0-3.82 1.81-5.28 4.4-5.28 2.13 0 3.41 1 3.41 2.18 0 .79-.56 1.39-1.37 1.39-.37 0-.72-.14-.93-.3-.09-1.04-.37-2.34-1.35-2.34-.72 0-1.07.72-1.25 1.62-.16.86-.21 2.2-.21 3.36v1.09l3.04-.02v1.21l-3.04-.02v1.46c0 5.31.02 5.81.12 6.21.19.72.56.81 1.53.83v.74z"/><path d="m40.14 12.26c0-3.1 2.27-5.49 5.79-5.49s5.75 2.2 5.75 5.35-2.27 5.49-5.82 5.49-5.72-2.2-5.72-5.35m8.61-.05c0-2.29-.84-4.52-2.9-4.52-2.18 0-2.8 2.53-2.8 4.47 0 2.29.83 4.52 2.9 4.52 2.18 0 2.8-2.52 2.8-4.47"/><path d="m52.93 7.72c1.34-.16 2.57-.48 3.68-.95l.23.16.07 2.34.05.02c.7-1.3 1.81-2.53 3.22-2.53 1.09 0 1.76.74 1.76 1.6 0 .9-.74 1.48-1.62 1.48-.12 0-.26 0-.4-.02-.23-.6-.58-.97-1.09-.97-.6 0-1.04.49-1.37 1.18-.37.83-.53 1.92-.53 3.38 0 1.32.02 1.92.12 2.36.14.77.6.88 1.58.88v.74c-.97-.05-2.04-.07-3.01-.07s-1.97.02-2.92.07v-.74c.95-.02 1.3-.09 1.46-.63.09-.32.12-.81.12-3.5s-.02-3.27-.12-3.55c-.14-.37-.44-.56-1.23-.63v-.65z"/><path d="m64.41 8.06c.93-.81 2.16-1.3 3.57-1.3 1.07 0 1.97.3 2.64.81l.05-.03c0-4.33-.05-5.03-.19-5.3-.16-.42-.65-.53-1.3-.6v-.65c1.39-.16 2.8-.51 4.06-.99l.21.16c-.07 1.53-.12 3.52-.12 8.83s.05 5.89.12 6.28c.09.53.4.67 1.2.76v.67c-1.44.21-2.69.58-3.64.9l-.23-.09-.05-1.53-.05-.02c-.74.93-2.01 1.65-3.62 1.65-1.27 0-2.29-.46-3.03-1.18-1-.95-1.53-2.41-1.53-3.87s.53-3.29 1.9-4.5m3.79 8.25c.86 0 1.81-.49 2.48-1.6v-2.8c0-1.62-.07-2.43-.37-3.01-.42-.83-1.16-1.11-1.88-1.11-1.76 0-2.99 1.65-2.99 4.33s1.3 4.19 2.76 4.19"/><path d="m.12 40.45c1.13-.09 1.5-.35 1.78-1.11.23-.6.42-1.48 1.3-5.91.72-3.52 1.14-5.7 1.14-6.46s-.74-.86-1.51-.93l.12-.62c.83.02 1.88.04 2.9.04s1.9-.02 2.71-.04l-.11.62c-1.16.09-1.51.35-1.78 1.11-.23.6-.44 1.48-1.32 5.91-.72 3.57-1.11 5.77-1.11 6.51s.74.81 1.48.88l-.12.63c-.81-.02-1.88-.05-2.9-.05s-1.88.02-2.69.05l.12-.63z"/><path d="m9.55 36.14c.3-1.57.44-2.85.44-3.59 0-.58-.07-.9-.42-.9-.56 0-1.27.81-1.78 1.67l-.51-.37c.9-1.41 1.97-2.5 3.17-2.5.86 0 1.48.58 1.48 1.74 0 .76-.25 1.99-.58 3.2l.04.02c.53-1.09 1.23-2.32 2.04-3.29.83-1 1.76-1.67 2.87-1.67 1.25 0 1.9.83 1.9 2.01 0 .79-.28 1.86-.67 3.36-.35 1.44-.65 2.69-.65 3.43 0 .49.14.81.46.81.53 0 1.16-.77 1.78-1.76l.53.39c-.86 1.44-2.04 2.6-3.27 2.6-.9 0-1.43-.67-1.43-1.83 0-.84.28-1.85.6-3.24.39-1.69.58-2.73.58-3.45 0-.39-.07-.97-.69-.97-1.14 0-2.62 2.02-3.64 4.2-.74 1.53-1.11 2.87-1.5 5.08h-1.92c.44-1.69.79-3.01 1.16-4.91"/><path d="m27.54 30.64c0 .58-.19.97-.77.97l-2.34-.02c-.76 3.13-1.41 6.02-1.41 7.3 0 .69.18 1.18.69 1.18.67 0 1.39-.88 2.09-2.06l.56.4c-.72 1.34-2.02 2.87-3.52 2.87-1.02 0-1.81-.72-1.81-2.09 0-.9.32-2.39 1.48-7.62l-1.67-.02.16-.83 1.69-.04c.23-1.14.44-2.2.6-3.04.67-.18 1.32-.39 1.92-.65l.28.14-.86 3.54 2.9-.03z"/><path d="m35.31 38.29c-.81 1.51-2.02 2.99-4.08 2.99s-3.59-1.53-3.59-4.01c0-1.39.46-3.11 1.44-4.5.88-1.27 2.25-2.34 3.87-2.34 1.46 0 2.62.83 2.62 2.15 0 2.43-3.92 2.99-6 3.08-.02.26-.05.56-.05.81 0 1.83.7 3.78 2.34 3.78 1.16 0 2.13-.95 2.9-2.34l.56.37zm-5.68-3.17c1.9-.21 4.17-.72 4.17-2.34 0-.69-.44-1.41-1.37-1.41-1.51 0-2.46 1.92-2.8 3.75"/><path d="m38.7 36.18c.28-1.44.39-2.69.39-3.5 0-.65-.07-1.04-.46-1.04-.56 0-1.2.74-1.78 1.67l-.49-.37c.86-1.41 1.95-2.5 3.15-2.5.83 0 1.48.53 1.48 1.67 0 .63-.21 1.67-.46 2.76l.05.02c1.2-2.97 2.25-4.45 3.68-4.45.9 0 1.65.58 1.65 1.41 0 .65-.44 1.09-1.07 1.09-.14 0-.26-.02-.37-.04-.21-.49-.56-.67-.88-.67-1.11 0-2.11 1.95-2.78 3.73-.53 1.41-.93 2.85-1.32 5.1h-1.92c.3-1.16.86-3.5 1.13-4.87"/><path d="m48.43 36.14c.3-1.57.44-2.85.44-3.59 0-.58-.07-.9-.42-.9-.56 0-1.27.81-1.78 1.67l-.51-.37c.9-1.41 1.97-2.5 3.17-2.5.86 0 1.48.58 1.48 1.74 0 .76-.25 1.99-.58 3.2l.04.02c.53-1.09 1.23-2.32 2.04-3.29.83-1 1.76-1.67 2.87-1.67 1.25 0 1.9.83 1.9 2.01 0 .79-.28 1.86-.67 3.36-.35 1.44-.65 2.69-.65 3.43 0 .49.14.81.46.81.53 0 1.16-.77 1.78-1.76l.53.39c-.86 1.44-2.04 2.6-3.27 2.6-.9 0-1.43-.67-1.43-1.83 0-.84.28-1.85.6-3.24.39-1.69.58-2.73.58-3.45 0-.39-.07-.97-.69-.97-1.14 0-2.62 2.02-3.64 4.2-.74 1.53-1.11 2.87-1.5 5.08h-1.92c.44-1.69.79-3.01 1.16-4.91"/><path d="m59.54 38.01c0-1.55.6-3.43 1.67-4.96 1.07-1.51 2.55-2.62 4.26-2.62 1.09 0 1.65.44 2.32.44.42 0 .81-.16 1-.44l.42.19c-.39 1.44-.88 3.2-1.23 5.01-.3 1.48-.39 2.57-.39 3.38 0 .63.07 1.07.46 1.07.58 0 1.23-.81 1.81-1.71l.51.39c-.86 1.32-1.99 2.53-3.2 2.53-.95 0-1.48-.72-1.48-1.83 0-.72.23-1.78.46-2.73l-.07-.02c-.6 1.55-2.02 4.59-4.15 4.59-1.37 0-2.39-1.28-2.39-3.27m6.21-2.03c.53-1.3.93-2.59 1.21-3.87-.53-.46-1.32-.72-1.95-.72-.97 0-1.95.6-2.71 2.32-.53 1.23-.79 2.59-.79 3.75s.23 2.55 1.14 2.55c.97 0 2.18-1.76 3.11-4.03"/><path d="m78.18 30.64c0 .58-.19.97-.77.97l-2.34-.02c-.76 3.13-1.41 6.02-1.41 7.3 0 .69.18 1.18.69 1.18.67 0 1.39-.88 2.09-2.06l.56.4c-.72 1.34-2.02 2.87-3.52 2.87-1.02 0-1.81-.72-1.81-2.09 0-.9.32-2.39 1.48-7.62l-1.67-.02.16-.83 1.69-.04c.23-1.14.44-2.2.6-3.04.67-.18 1.32-.39 1.92-.65l.28.14-.86 3.54 2.9-.03z"/><path d="m79.39 39.5c0-.79.25-1.88.6-3.29.53-2.16.83-3.36.83-3.99 0-.42-.14-.58-.39-.58-.58 0-1.28.81-1.83 1.67l-.46-.37c.9-1.43 1.99-2.5 3.17-2.5.84 0 1.46.53 1.46 1.58 0 .86-.44 2.46-.79 3.8-.37 1.37-.65 2.8-.65 3.47 0 .44.11.74.46.74.53 0 1.18-.81 1.78-1.74l.56.39c-.83 1.32-2.04 2.6-3.31 2.6-.86 0-1.44-.6-1.44-1.78m2.14-12.66c0-.67.56-1.32 1.32-1.32s1.23.51 1.23 1.18-.58 1.32-1.34 1.32-1.21-.51-1.21-1.18"/><path d="m85.07 37.32c0-2.92 2.01-6.88 5.49-6.88 2.16 0 3.64 1.53 3.64 3.96 0 2.92-2.02 6.89-5.49 6.89-2.15 0-3.64-1.53-3.64-3.97m7.21-2.09c0-1.44-.46-3.82-2.29-3.82-2.06 0-2.99 3.27-2.99 5.07 0 1.44.46 3.83 2.29 3.83 2.06 0 2.99-3.27 2.99-5.08"/><path d="m97.4 36.14c.3-1.57.44-2.85.44-3.59 0-.58-.07-.9-.42-.9-.56 0-1.27.81-1.79 1.67l-.51-.37c.9-1.41 1.97-2.5 3.17-2.5.86 0 1.48.58 1.48 1.74 0 .76-.25 1.99-.58 3.2l.04.02c.53-1.09 1.23-2.32 2.04-3.29.84-1 1.76-1.67 2.87-1.67 1.25 0 1.9.83 1.9 2.01 0 .79-.28 1.86-.67 3.36-.35 1.44-.65 2.69-.65 3.43 0 .49.14.81.46.81.53 0 1.16-.77 1.78-1.76l.53.39c-.86 1.44-2.04 2.6-3.27 2.6-.9 0-1.43-.67-1.43-1.83 0-.84.28-1.85.6-3.24.39-1.69.58-2.73.58-3.45 0-.39-.07-.97-.69-.97-1.14 0-2.62 2.02-3.64 4.2-.74 1.53-1.11 2.87-1.5 5.08h-1.92c.44-1.69.79-3.01 1.16-4.91"/><path d="m108.51 38.01c0-1.55.6-3.43 1.67-4.96 1.07-1.51 2.55-2.62 4.26-2.62 1.09 0 1.65.44 2.32.44.42 0 .81-.16.99-.44l.42.19c-.39 1.44-.88 3.2-1.23 5.01-.3 1.48-.39 2.57-.39 3.38 0 .63.07 1.07.46 1.07.58 0 1.23-.81 1.81-1.71l.51.39c-.86 1.32-1.99 2.53-3.2 2.53-.95 0-1.48-.72-1.48-1.83 0-.72.23-1.78.46-2.73l-.07-.02c-.6 1.55-2.02 4.59-4.15 4.59-1.37 0-2.39-1.28-2.39-3.27m6.22-2.03c.53-1.3.93-2.59 1.21-3.87-.53-.46-1.32-.72-1.95-.72-.97 0-1.95.6-2.71 2.32-.53 1.23-.79 2.59-.79 3.75s.23 2.55 1.14 2.55c.97 0 2.18-1.76 3.11-4.03"/><path d="m120.4 39.5c0-.79.23-1.92.53-3.27.49-2.11.88-3.59 1.39-5.93.53-2.36.79-3.78.79-4.4 0-.46-.19-.7-.79-.7-.21 0-.51.02-.7.05l-.07-.53c1.37-.21 2.64-.6 3.78-1.04l.26.14c-.47 2.2-.9 4.36-1.53 7-.58 2.46-.88 3.45-1.21 4.98-.32 1.46-.51 2.62-.51 3.36 0 .49.09.88.44.88.53 0 1.18-.81 1.79-1.74l.53.39c-.86 1.39-2.02 2.6-3.25 2.6-.95 0-1.46-.72-1.46-1.79"/><path d="m1.25 58.81c0-2.18.83-4.63 2.22-6.51 1.46-1.92 3.66-3.43 6.35-3.43 1.37 0 2.71.37 3.75 1.07-.32.95-.55 2.04-.72 3.04l-.58-.02c-.3-2.08-1.09-3.2-2.87-3.2-1.99 0-3.55 1.37-4.54 3.13-.93 1.67-1.41 3.89-1.41 5.56 0 2.87 1.43 5.58 3.94 5.58 1.88 0 3.13-1.55 3.66-3.89l.6.07c-.05.65-.07 1.32-.07 2.01 0 .37 0 .74.02 1.11-1.32 1.09-2.97 1.62-4.59 1.62-3.5 0-5.77-2.48-5.77-6.14"/><path d="m15.25 59.57c.42-1.72.7-3.03.7-3.68 0-.3-.05-.58-.4-.58-.56 0-1.25.81-1.81 1.67l-.46-.37c.86-1.37 1.97-2.5 3.15-2.5.86 0 1.48.58 1.48 1.6 0 .65-.28 1.72-.72 3.5-.4 1.62-.63 2.62-.63 3.33 0 .67.21 1.09.72 1.09 1.2 0 2.69-2.36 3.5-4.03.74-1.58 1.13-3.04 1.6-5.26h1.9c-.28.97-.83 3.08-1.18 4.94-.3 1.55-.44 2.8-.44 3.48s.14 1 .46 1c.56 0 1.23-.81 1.81-1.72l.49.4c-.86 1.32-1.97 2.52-3.2 2.52-.93 0-1.48-.65-1.48-1.76 0-.74.25-1.88.58-3.17l-.05-.02c-.76 1.67-2.55 4.96-4.87 4.96-1.16 0-1.83-.81-1.83-1.97 0-.88.42-2.34.67-3.41"/><path d="m27.68 59.85c.28-1.44.39-2.69.39-3.5 0-.65-.07-1.04-.46-1.04-.56 0-1.2.74-1.78 1.67l-.49-.37c.86-1.41 1.95-2.5 3.15-2.5.83 0 1.48.53 1.48 1.67 0 .63-.21 1.67-.46 2.76l.05.02c1.2-2.97 2.25-4.45 3.68-4.45.9 0 1.65.58 1.65 1.41 0 .65-.44 1.09-1.07 1.09-.14 0-.25-.02-.37-.04-.21-.49-.55-.67-.88-.67-1.11 0-2.11 1.95-2.78 3.73-.53 1.41-.93 2.85-1.32 5.1h-1.92c.3-1.16.86-3.5 1.13-4.87"/><path d="m37.47 59.85c.28-1.44.39-2.69.39-3.5 0-.65-.07-1.04-.46-1.04-.56 0-1.2.74-1.78 1.67l-.49-.37c.86-1.41 1.95-2.5 3.15-2.5.83 0 1.48.53 1.48 1.67 0 .63-.21 1.67-.46 2.76l.05.02c1.2-2.97 2.25-4.45 3.68-4.45.9 0 1.65.58 1.65 1.41 0 .65-.44 1.09-1.07 1.09-.14 0-.26-.02-.37-.04-.21-.49-.55-.67-.88-.67-1.11 0-2.11 1.95-2.78 3.73-.53 1.41-.93 2.85-1.32 5.1h-1.92c.3-1.16.86-3.5 1.13-4.87"/><path d="m46.3 63.17c0-.79.25-1.88.6-3.29.53-2.16.83-3.36.83-3.99 0-.42-.14-.58-.39-.58-.58 0-1.28.81-1.83 1.67l-.46-.37c.9-1.43 1.99-2.5 3.17-2.5.84 0 1.46.53 1.46 1.58 0 .86-.44 2.46-.79 3.8-.37 1.37-.65 2.8-.65 3.47 0 .44.11.74.46.74.53 0 1.18-.81 1.78-1.74l.56.39c-.83 1.32-2.04 2.6-3.31 2.6-.86 0-1.44-.61-1.44-1.79m2.14-12.65c0-.67.56-1.32 1.32-1.32s1.23.51 1.23 1.18-.58 1.32-1.34 1.32-1.21-.51-1.21-1.18"/><path d="m53.67 56.4c.93-1.25 2.22-2.29 3.99-2.29 1.53 0 2.73.76 2.73 1.83 0 .63-.44 1.04-1.02 1.04-.25 0-.46-.09-.6-.19-.16-1.09-.7-1.76-1.67-1.76-1.04 0-1.81.76-2.32 1.81-.53 1.09-.81 2.48-.81 3.62 0 1.85.77 3.47 2.22 3.47 1.11 0 2.13-.95 2.92-2.34l.53.37c-.88 1.6-2.15 2.99-4.12 2.99s-3.52-1.39-3.52-3.8c0-1.46.56-3.24 1.67-4.75"/><path d="m63.06 59.57c.42-1.72.69-3.03.69-3.68 0-.3-.05-.58-.39-.58-.56 0-1.25.81-1.81 1.67l-.46-.37c.86-1.37 1.97-2.5 3.15-2.5.86 0 1.48.58 1.48 1.6 0 .65-.28 1.72-.72 3.5-.39 1.62-.62 2.62-.62 3.33 0 .67.21 1.09.72 1.09 1.21 0 2.69-2.36 3.5-4.03.74-1.58 1.14-3.04 1.6-5.26h1.9c-.28.97-.83 3.08-1.18 4.94-.3 1.55-.44 2.8-.44 3.48s.14 1 .46 1c.56 0 1.23-.81 1.81-1.72l.49.4c-.86 1.32-1.97 2.52-3.2 2.52-.93 0-1.48-.65-1.48-1.76 0-.74.25-1.88.58-3.17l-.05-.02c-.77 1.67-2.55 4.96-4.87 4.96-1.16 0-1.83-.81-1.83-1.97 0-.88.42-2.34.67-3.41"/><path d="m74.26 63.17c0-.79.23-1.92.53-3.27.49-2.11.88-3.59 1.39-5.93.53-2.36.79-3.78.79-4.4 0-.46-.19-.69-.79-.69-.21 0-.51.02-.7.05l-.07-.53c1.37-.21 2.64-.6 3.78-1.04l.26.14c-.47 2.2-.9 4.36-1.53 7-.58 2.46-.88 3.45-1.21 4.98-.32 1.46-.51 2.62-.51 3.36 0 .49.09.88.44.88.53 0 1.18-.81 1.79-1.74l.53.4c-.86 1.39-2.02 2.6-3.25 2.6-.95 0-1.46-.72-1.46-1.79"/><path d="m80.75 59.57c.42-1.72.7-3.03.7-3.68 0-.3-.05-.58-.4-.58-.56 0-1.25.81-1.81 1.67l-.46-.37c.86-1.37 1.97-2.5 3.15-2.5.86 0 1.48.58 1.48 1.6 0 .65-.28 1.72-.72 3.5-.4 1.62-.63 2.62-.63 3.33 0 .67.21 1.09.72 1.09 1.2 0 2.69-2.36 3.5-4.03.74-1.58 1.13-3.04 1.6-5.26h1.9c-.28.97-.83 3.08-1.18 4.94-.3 1.55-.44 2.8-.44 3.48s.14 1 .46 1c.56 0 1.23-.81 1.81-1.72l.49.4c-.86 1.32-1.97 2.52-3.2 2.52-.93 0-1.48-.65-1.48-1.76 0-.74.25-1.88.58-3.17l-.05-.02c-.76 1.67-2.55 4.96-4.87 4.96-1.16 0-1.83-.81-1.83-1.97 0-.88.42-2.34.67-3.41"/><path d="m93.14 59.81c.3-1.6.44-2.85.44-3.59 0-.47-.02-.9-.42-.9-.56 0-1.27.81-1.78 1.67l-.51-.37c.88-1.37 1.94-2.5 3.15-2.5 1.04 0 1.5.76 1.5 1.71 0 .72-.21 1.76-.58 3.24l.07.02c.56-1.25 1.11-2.18 1.78-3.06.83-1.07 1.83-1.92 3.04-1.92 1.04 0 1.79.63 1.79 1.76 0 .65-.26 1.67-.65 2.94l.05.02c.51-1.09 1.21-2.22 1.78-2.94.83-1.04 1.81-1.79 2.97-1.79s1.83.79 1.83 1.99c0 .79-.28 1.85-.58 3.04-.46 1.74-.74 3.15-.74 3.82 0 .46.12.77.44.77.56 0 1.23-.79 1.81-1.76l.55.39c-.83 1.41-1.99 2.6-3.24 2.6-.95 0-1.48-.72-1.48-1.83 0-.77.26-1.85.6-3.24.42-1.69.6-2.64.6-3.38 0-.46-.1-1.04-.7-1.04-1.09 0-2.48 1.95-3.43 3.94-.88 1.86-1.35 3.59-1.65 5.33h-1.9c.47-1.83.81-3.22 1.18-4.84.37-1.67.6-2.71.6-3.38 0-.44-.09-1.04-.67-1.04-1 0-2.46 1.81-3.48 3.94-.62 1.34-1.16 2.83-1.62 5.33h-1.92c.44-1.65.86-3.31 1.16-4.91"/></g></svg>