<svg viewBox="0 0 545.44 143.97" xmlns="http://www.w3.org/2000/svg"><path d="m59.53 46.69v41.66h21.06v-40.62c0-6.08 4.93-11 11-11h12.35v-19.26h-15.2c-16.14 0-29.21 13.07-29.21 29.22zm138.08-1.51c.14-6.53 6.26-11.88 13.78-11.88s13.76 5.3 13.82 11.88zm48.04 9.88c-.12-21.98-12.1-39.3-34.26-39.3-19.03 0-34.42 15.45-34.42 36.61 0 22.87 13.95 36.41 34.53 36.76 13.42 0 25.09-7.46 31.1-18.46l-19.25-5.09c-2.39 3.57-6.84 5.95-11.94 5.95-7.52 0-13.64-5.37-13.78-11.91h48.04c.03-1.02 0-3.55 0-4.57zm-93.74 4.68c0 6.04-4.88 11.01-10.96 11.01s-10.99-4.96-10.99-11.01v-32.13c0-5.6-4.53-10.14-10.15-10.14h-10.94v39.58c0 17.73 9.58 32.1 32.08 32.1s32.09-14.37 32.09-32.1v-39.58h-21.13zm-120.77-59.74h-21.07v17.47h-9.92v19.26h9.92v22.6c0 17.72 14.36 29.02 32.1 29.02h12.44v-18.44h-12.47c-6.1 0-10.99-4.94-10.99-11.01v-22.18l13.77-.03c5.41-.21 9.7-4.69 9.7-10.13v-9.1h-23.47v-17.46z" fill="#ed1c24" fill-rule="evenodd"/><path d="m26.5 128.45c-1.16 0-2.22.43-3.03 1.13h-.01c-2.06 1.87-5.04 2.75-8.19 1.84-2.74-.79-4.9-3-5.65-5.75-1.53-5.69 2.71-10.82 8.15-10.82 2.07 0 3.96.75 5.42 1.98.13.11.26.23.39.35.8.64 1.81 1.03 2.92 1.03 2.57 0 4.66-2.09 4.66-4.66 0-1.33-.56-2.52-1.45-3.37-4.16-3.8-10.12-5.64-16.45-4.09-6.16 1.51-11.08 6.35-12.67 12.49-3.06 11.86 5.8 22.5 17.16 22.5 4.46 0 8.54-1.65 11.66-4.37.07-.06.14-.12.2-.18.03-.03.07-.06.1-.09.02-.02.05-.04.07-.07.84-.84 1.35-2 1.35-3.28 0-2.57-2.08-4.65-4.65-4.65z" fill="#72bf44"/><path d="m100.83 128.45c-1.16 0-2.22.43-3.03 1.13h-.01c-2.06 1.87-5.04 2.75-8.19 1.84-2.74-.79-4.9-3-5.65-5.75-1.53-5.69 2.71-10.82 8.15-10.82 2.07 0 3.96.75 5.42 1.98.13.11.26.23.39.35.8.64 1.81 1.03 2.92 1.03 2.57 0 4.66-2.09 4.66-4.66 0-1.33-.56-2.52-1.45-3.37-4.16-3.8-10.12-5.64-16.45-4.09-6.16 1.51-11.08 6.35-12.67 12.49-3.06 11.86 5.8 22.5 17.16 22.5 4.46 0 8.54-1.65 11.66-4.37.07-.06.14-.12.2-.18.03-.03.07-.06.1-.09.02-.02.05-.04.07-.07.84-.84 1.35-2 1.35-3.28 0-2.57-2.08-4.65-4.65-4.65z" fill="#72bf44"/><path d="m53.82 131.03h-9.45v-21.02c0-2.55-2.07-4.61-4.61-4.61h-.92c-2.55 0-4.61 2.07-4.61 4.61v26.56c0 .64.13 1.24.36 1.8.47 1.1 1.35 1.99 2.46 2.46.55.23 1.16.36 1.8.36h14.98c2.55 0 4.61-2.07 4.61-4.61v-.92c0-2.55-2.07-4.61-4.61-4.61z" fill="#72bf44"/><path d="m184.07 105.5c-2.39.48-4.03 2.72-4.03 5.16v25.25c0 2.44 1.63 4.68 4.03 5.16 3.26.65 6.13-1.82 6.13-4.97v-25.63c0-3.15-2.86-5.62-6.13-4.97z" fill="#72bf44"/><path d="m111.91 105.5c-2.39.48-4.03 2.72-4.03 5.16v25.25c0 2.44 1.63 4.68 4.03 5.16 3.26.65 6.13-1.82 6.13-4.97v-25.63c0-3.15-2.86-5.62-6.13-4.97z" fill="#72bf44"/><path d="m172.67 131.03h-9.45v-20.37c0-2.44-1.63-4.68-4.03-5.16-3.26-.65-6.13 1.82-6.13 4.97v26.1c0 2.55 2.07 4.61 4.61 4.61h14.98c2.55 0 4.61-2.07 4.61-4.61v-.92c0-2.55-2.07-4.61-4.61-4.61z" fill="#72bf44"/><path d="m65.75 105.4h.92c2.55 0 4.61 2.07 4.61 4.61v26.56c0 2.55-2.07 4.61-4.61 4.61h-.92c-2.55 0-4.61-2.07-4.61-4.61v-26.56c0-2.55 2.07-4.61 4.61-4.61z" fill="#72bf44"/><path d="m212.99 115.55c3.15 0 5.62-2.86 4.97-6.13-.48-2.39-2.72-4.03-5.16-4.03h-13.97c-.7 0-1.37.14-1.98.4s-1.15.63-1.61 1.09c-.23.23-.44.48-.62.75-.55.81-.87 1.79-.87 2.84v12.82s0 12.63 0 12.63c0 2.44 1.63 4.68 4.03 5.16 3.26.65 6.13-1.82 6.13-4.97v-7.74h8.89c2.44 0 4.68-1.63 5.16-4.03.65-3.26-1.82-6.13-4.97-6.13h-9.08v-2.67h9.08z" fill="#72bf44"/><path d="m240.32 128.37c3.15 0 5.62-2.86 4.97-6.13-.48-2.39-2.72-4.03-5.16-4.03h-8.89s0-2.67 0-2.67h8.89c2.44 0 4.68-1.63 5.16-4.03.65-3.26-1.82-6.13-4.97-6.13h-14.16c-.7 0-1.37.14-1.98.4-1.82.77-3.1 2.57-3.1 4.68v12.82s0 0 0 0v12.82c0 2.1 1.28 3.91 3.1 4.68.61.26 1.27.4 1.98.4h13.97c2.44 0 4.68-1.63 5.16-4.03.65-3.26-1.82-6.13-4.97-6.13h-9.08v-2.67h9.08z" fill="#72bf44"/><path d="m138.82 106.29c-2.03-1.35-4.77-.92-6.5.8l-12.78 12.78c-.99.99-1.49 2.29-1.49 3.6 0 1.3.49 2.6 1.49 3.6l12.54 12.54c1.73 1.73 4.47 2.16 6.5.8 2.77-1.85 3.04-5.62.82-7.85l-9.09-9.09 9.33-9.33c2.22-2.22 1.95-6-.82-7.85z" fill="#72bf44"/><g fill="#ed1c24"><path d="m406.09 122.86c-.83.13-1.67.2-2.51.2-1.75 0-3.36-.22-4.82-.65-1.45-.43-2.7-1.09-3.75-1.96-1.04-.87-1.86-1.98-2.44-3.31-.59-1.33-.88-2.89-.88-4.69s.27-3.44.82-4.87c.55-1.42 1.33-2.61 2.35-3.57s2.26-1.69 3.74-2.19c1.47-.5 3.13-.75 4.98-.75.72 0 1.52.07 2.4.21s1.72.36 2.53.65l-.32 3.62c-.84-.45-1.64-.76-2.4-.9-.76-.15-1.53-.22-2.31-.22-1.12 0-2.14.19-3.04.59-.9.39-1.67.93-2.3 1.62s-1.11 1.51-1.45 2.45-.51 1.96-.51 3.06.17 2.09.51 3.01.82 1.72 1.45 2.4 1.4 1.22 2.32 1.6c.91.38 1.95.57 3.11.57.42 0 .86-.02 1.32-.07.46-.04.9-.11 1.33-.19s.82-.18 1.19-.29.69-.23.96-.36l.18 3.57c-.81.18-1.63.33-2.46.46z"/><path d="m424.79 122.71v-9.35h-8.71v9.35h-4.32v-21.29h4.32v8.6h8.71v-8.6h4.39v21.29z"/><path d="m433.82 122.71v-21.29h4.35v21.29z"/><path d="m455.16 122.71-8.28-15.9h-.09v15.9h-4.17v-21.29h5.36l8.31 15.9h.04v-15.9h4.14v21.29z"/><path d="m465.31 122.71v-21.29h12.81v3.35h-8.49v5.25h7.75v3.33h-7.75v6h8.53v3.35h-12.86z"/><path d="m495.93 116.66c0 1.16-.22 2.15-.65 2.97-.44.81-1.03 1.48-1.77 1.98-.74.51-1.61.88-2.6 1.1-.99.23-2.04.34-3.15.34-.59 0-1.1-.02-1.55-.05-.45-.04-.88-.09-1.3-.16-.41-.07-.83-.15-1.26-.25s-.9-.21-1.43-.33l.38-3.86c.76.38 1.57.7 2.4.95s1.68.38 2.53.38c.42 0 .86-.05 1.31-.16.45-.1.87-.27 1.25-.5s.7-.52.95-.86c.25-.35.37-.76.37-1.25s-.14-.93-.41-1.28-.63-.66-1.08-.92-.96-.5-1.53-.72-1.16-.45-1.76-.69-1.18-.51-1.75-.81-1.08-.68-1.53-1.13-.81-.98-1.08-1.61c-.27-.62-.41-1.37-.41-2.24 0-1.19.22-2.2.65-3.03s1.01-1.5 1.72-2.02 1.52-.89 2.43-1.12 1.84-.34 2.8-.34 1.83.06 2.69.18 1.7.32 2.51.59l-.41 3.49c-1.41-.6-2.89-.9-4.44-.9-.36 0-.74.05-1.15.13-.41.09-.77.24-1.1.46s-.6.52-.82.9-.33.86-.33 1.43c0 .47.13.86.4 1.18s.63.6 1.08.84.96.47 1.52.67c.56.21 1.15.43 1.75.67s1.18.52 1.75.84c.56.32 1.07.7 1.52 1.16.45.45.81 1 1.08 1.64s.41 1.41.41 2.3z"/><path d="m499.89 122.71v-21.29h12.81v3.35h-8.49v5.25h7.75v3.33h-7.75v6h8.53v3.35h-12.86z"/><path d="m515.74 116.2v-3.4h8.17v3.4z"/><path d="m541.93 122.74c-1.18.21-2.36.32-3.53.32-1.75 0-3.36-.22-4.82-.65-1.45-.43-2.7-1.09-3.75-1.96-1.04-.87-1.86-1.98-2.44-3.31-.59-1.33-.88-2.89-.88-4.69s.27-3.44.82-4.87c.55-1.42 1.33-2.61 2.35-3.57s2.26-1.69 3.74-2.19c1.47-.5 3.13-.75 4.98-.75 1.28 0 2.43.07 3.46.22s2.02.36 2.96.64l-.29 3.62c-.86-.38-1.79-.67-2.79-.85s-1.95-.28-2.84-.28c-1.26 0-2.38.19-3.37.59-.98.39-1.81.93-2.48 1.62s-1.17 1.51-1.52 2.45c-.34.94-.52 1.96-.52 3.06s.17 2.09.51 3.01.82 1.72 1.45 2.4 1.4 1.22 2.32 1.6c.91.38 1.95.57 3.11.57.6 0 1.13-.03 1.6-.09.46-.06.88-.14 1.26-.24v-5.53h-4.62v-3.35h8.8v11.47c-1.15.29-2.32.55-3.51.76z"/><path d="m401.35 137.51c-.13 1.23-.57 2.17-1.3 2.83-.74.66-1.73.99-2.98.99-1.47 0-2.62-.47-3.44-1.4-.76-.9-1.14-2.09-1.14-3.57s.4-2.66 1.2-3.6c.85-1 2.02-1.5 3.48-1.5 1.08 0 1.99.28 2.74.82.75.55 1.19 1.32 1.33 2.32h-1.3c-.12-.67-.44-1.18-.94-1.54s-1.12-.54-1.82-.54c-1.11 0-1.96.4-2.56 1.21-.53.71-.8 1.62-.8 2.72 0 1.19.27 2.14.8 2.85.59.8 1.44 1.19 2.56 1.19.84 0 1.52-.27 2.04-.8.47-.49.74-1.16.82-2h1.32z"/><path d="m408.52 141.17h-1.18v-4.75c0-.44-.13-.79-.4-1.04s-.62-.38-1.07-.38c-.69 0-1.21.2-1.58.6-.36.4-.54.93-.54 1.59v3.97h-1.18v-9.67h1.18v3.68h.04c.35-.78 1.09-1.17 2.24-1.17 1.65 0 2.48.85 2.48 2.55v4.61z"/><path d="m411.33 132.89h-1.18v-1.4h1.18zm0 8.28h-1.18v-7.01h1.18z"/><path d="m418.89 141.17h-1.18v-4.75c0-.44-.13-.79-.4-1.04s-.62-.38-1.07-.38c-.69 0-1.21.2-1.58.6-.36.4-.54.93-.54 1.59v3.97h-1.18v-6.99h1.12v1.09h.02c.48-.84 1.26-1.26 2.32-1.26 1.65 0 2.48.85 2.48 2.55v4.61z"/><path d="m426.69 138.01h-5.39c-.01.66.17 1.19.54 1.6.39.47.96.7 1.68.7 1.01 0 1.63-.46 1.84-1.38l1.12.3c-.42 1.36-1.42 2.04-3 2.04-1.11 0-1.96-.33-2.56-1-.57-.65-.86-1.52-.86-2.6s.31-1.94.93-2.63 1.44-1.03 2.45-1.03c1.15 0 2.01.46 2.6 1.37.46.74.67 1.62.64 2.63zm-1.28-1c-.03-.57-.23-1.05-.61-1.43s-.86-.58-1.44-.58-1.07.2-1.44.59-.58.87-.62 1.42z"/><path d="m433.29 139.11c0 .77-.33 1.35-.98 1.75-.53.28-1.22.41-2.06.41-1.96 0-2.98-.77-3.04-2.32h1.2c.04.9.68 1.35 1.9 1.35 1.16 0 1.74-.34 1.74-1.02 0-.4-.25-.7-.74-.91-.19-.08-.73-.21-1.61-.4-.73-.17-1.27-.36-1.6-.58-.49-.33-.74-.79-.74-1.39 0-.65.29-1.16.86-1.52.51-.31 1.11-.47 1.8-.47 1.88 0 2.86.73 2.94 2.18h-1.18c-.07-.79-.62-1.19-1.65-1.19s-1.54.3-1.54.9c0 .36.26.63.78.82.14.05.66.18 1.58.39.74.16 1.27.36 1.61.59.48.33.72.79.72 1.39z"/><path d="m440.63 138.01h-5.39c-.01.66.17 1.19.54 1.6.39.47.96.7 1.68.7 1.01 0 1.63-.46 1.84-1.38l1.12.3c-.42 1.36-1.42 2.04-3 2.04-1.11 0-1.96-.33-2.56-1-.57-.65-.86-1.52-.86-2.6s.31-1.94.93-2.63 1.44-1.03 2.45-1.03c1.15 0 2.01.46 2.6 1.37.46.74.67 1.62.64 2.63zm-1.28-1c-.03-.57-.23-1.05-.61-1.43s-.86-.58-1.44-.58-1.07.2-1.44.59-.58.87-.62 1.42z"/><path d="m456.22 136.32c0 1.43-.4 2.6-1.2 3.53-.87.98-2.05 1.47-3.54 1.47s-2.7-.49-3.57-1.47c-.79-.93-1.18-2.11-1.18-3.53s.39-2.59 1.18-3.52c.87-1.02 2.06-1.54 3.57-1.54 1.04 0 1.94.27 2.7.8.72.49 1.25 1.16 1.6 2.01l-1.22.41c-.59-1.44-1.61-2.16-3.08-2.16-1.14 0-2.01.43-2.62 1.28-.55.73-.82 1.64-.82 2.72s.27 2.03.82 2.75c.61.84 1.49 1.26 2.62 1.26.96 0 1.75-.32 2.38-.97.53-.56.85-1.31.98-2.22h-3.4v-1.05h4.78z"/><path d="m463.6 138.01h-5.39c-.01.66.17 1.19.54 1.6.39.47.96.7 1.68.7 1.01 0 1.63-.46 1.84-1.38l1.12.3c-.42 1.36-1.42 2.04-3 2.04-1.11 0-1.96-.33-2.56-1-.57-.65-.86-1.52-.86-2.6s.31-1.94.93-2.63 1.44-1.03 2.45-1.03c1.15 0 2.01.46 2.6 1.37.46.74.67 1.62.64 2.63zm-1.28-1c-.03-.57-.23-1.05-.61-1.43s-.86-.58-1.44-.58-1.07.2-1.44.59-.58.87-.62 1.42z"/><path d="m470.51 141.17h-1.18v-4.75c0-.44-.13-.79-.4-1.04s-.62-.38-1.07-.38c-.69 0-1.21.2-1.58.6-.36.4-.54.93-.54 1.59v3.97h-1.18v-6.99h1.12v1.09h.02c.48-.84 1.26-1.26 2.32-1.26 1.65 0 2.48.85 2.48 2.55v4.61z"/><path d="m473.33 132.89h-1.18v-1.4h1.18zm0 8.28h-1.18v-7.01h1.18z"/><path d="m480.86 138.76c0 .81-.25 1.43-.76 1.86s-1.23.65-2.17.65-1.7-.21-2.21-.64c-.52-.43-.78-1.05-.78-1.87v-4.6h.31c.58 0 .87.3.87.9v3.26c0 .6.08 1.04.25 1.32.27.44.79.66 1.57.66s1.25-.22 1.51-.66c.16-.28.24-.71.24-1.32v-4.16h1.18v4.6z"/><path d="m488.06 139.11c0 .77-.33 1.35-.98 1.75-.53.28-1.22.41-2.06.41-1.96 0-2.98-.77-3.04-2.32h1.2c.04.9.68 1.35 1.9 1.35 1.16 0 1.74-.34 1.74-1.02 0-.4-.25-.7-.74-.91-.19-.08-.73-.21-1.61-.4-.73-.17-1.27-.36-1.6-.58-.49-.33-.74-.79-.74-1.39 0-.65.29-1.16.86-1.52.51-.31 1.11-.47 1.8-.47 1.88 0 2.86.73 2.94 2.18h-1.18c-.07-.79-.62-1.19-1.65-1.19s-1.54.3-1.54.9c0 .36.26.63.78.82.14.05.66.18 1.58.39.74.16 1.27.36 1.61.59.48.33.72.79.72 1.39z"/><path d="m502.18 134.35c0 .9-.26 1.61-.79 2.11-.52.5-1.27.75-2.26.75h-3.02v3.97h-1.32v-9.69h4.35c.98 0 1.74.25 2.26.75s.79 1.2.79 2.11zm-1.32 0c0-1.18-.72-1.77-2.16-1.77h-2.58v3.53h2.58c1.44 0 2.16-.59 2.16-1.77z"/><path d="m507.12 135.21h-.34c-.56 0-1.08.27-1.55.8-.48.54-.71 1.07-.71 1.59v3.57h-1.18v-7.01h1.18v1c.5-.74 1.25-1.08 2.26-1.02l.34.02v1.04z"/><path d="m514.36 137.69c0 1.07-.29 1.93-.88 2.58-.63.67-1.49 1-2.6 1s-1.95-.33-2.58-1c-.59-.65-.88-1.52-.88-2.58s.3-1.95.88-2.6c.63-.71 1.49-1.07 2.58-1.07s1.97.36 2.6 1.07c.59.65.88 1.52.88 2.6zm-1.24-.01c0-.82-.21-1.47-.64-1.95s-.96-.72-1.6-.72-1.15.24-1.58.72-.64 1.13-.64 1.95.21 1.45.64 1.92.95.71 1.58.71 1.18-.23 1.6-.7c.43-.47.64-1.11.64-1.93z"/><path d="m521.72 140.58c0 2.26-1.11 3.39-3.33 3.39-.77 0-1.42-.15-1.96-.46-.64-.37-.98-.91-1-1.62h1.17c.03.38.26.68.68.88.33.17.73.26 1.18.26 1.44 0 2.16-.88 2.16-2.63v-.45h-.04c-.38.81-1.13 1.21-2.23 1.21-1 0-1.8-.33-2.39-1-.53-.65-.8-1.47-.8-2.48s.24-1.79.72-2.45c.59-.82 1.45-1.23 2.58-1.23 1 0 1.72.39 2.14 1.17h.02v-1h1.11v6.4zm-1.18-3.08c0-.69-.15-1.27-.46-1.72-.36-.51-.88-.77-1.57-.77-.72 0-1.26.26-1.62.77-.33.45-.5 1.04-.5 1.77s.15 1.33.44 1.8c.35.57.88.86 1.6.86s1.25-.29 1.63-.86c.32-.49.48-1.11.48-1.85z"/><path d="m527.01 135.21h-.34c-.56 0-1.08.27-1.55.8-.48.54-.71 1.07-.71 1.59v3.57h-1.18v-7.01h1.18v1c.5-.74 1.25-1.08 2.26-1.02l.34.02v1.04z"/><path d="m534.03 141.15c-.21.08-.5.12-.86.12-.66 0-.99-.34-.99-1.02-.64.68-1.48 1.02-2.5 1.02-1.58 0-2.37-.64-2.37-1.91 0-.71.25-1.24.75-1.59.33-.23.88-.43 1.65-.57.56-.1 1.12-.2 1.69-.29.47-.12.7-.37.7-.74 0-.78-.53-1.16-1.59-1.16-1.13 0-1.73.45-1.79 1.34h-1.17c.06-1.55 1.06-2.33 3.02-2.33 1.8 0 2.71.64 2.71 1.93v3.58c0 .31.01.51.04.6.04.12.15.18.32.18.14 0 .26-.02.38-.06v.9zm-1.92-2.43v-1.16c-.21.16-.65.28-1.32.36-.75.1-1.25.21-1.51.31-.49.19-.74.55-.74 1.05 0 .68.46 1.02 1.38 1.02.7 0 1.27-.18 1.68-.55.33-.3.5-.64.5-1.03z"/><path d="m544.95 141.17h-1.18v-4.61c0-1.04-.46-1.56-1.39-1.56-.57 0-1.02.17-1.36.49-.34.33-.51.76-.51 1.29v4.38h-1.18v-4.61c0-1.04-.45-1.56-1.34-1.56-.61 0-1.1.23-1.46.69-.3.37-.44.74-.44 1.09v4.38h-1.18v-6.99h1.12v1.01h.02c.53-.78 1.3-1.17 2.32-1.17s1.68.4 1.95 1.19c.52-.8 1.27-1.19 2.25-1.19 1.59 0 2.39.67 2.39 2.02v5.14z"/><path d="m426.72 31.25c14.72 2.24 28.94 3.65 43.28 3.76 7.16.06 14.3-.22 21.49-.76 7.19-.58 14.38-1.52 21.81-2.44-6.47 3.74-13.6 6.28-20.92 7.94-7.33 1.71-14.9 2.45-22.44 2.39-7.54-.08-15.07-.95-22.37-2.73-7.29-1.75-14.46-4.23-20.84-8.16z"/><path d="m434.91 27.96c.67 4.96 0 9.94-1.34 14.74-1.39 4.8-3.6 9.45-6.75 13.57-3.13 4.12-7.32 7.68-12.21 9.81-4.87 2.14-10.37 2.75-15.29 1.51 4.76-1.75 8.9-3.75 12.44-6.38 3.55-2.6 6.55-5.73 9.24-9.23 2.68-3.49 5.04-7.33 7.28-11.36 2.24-4.04 4.34-8.24 6.64-12.66z"/><path d="m506.12 27.96c2.3 4.42 4.4 8.62 6.65 12.66 2.23 4.03 4.59 7.88 7.27 11.36 2.68 3.5 5.69 6.63 9.24 9.23 3.55 2.63 7.68 4.63 12.45 6.38-4.93 1.24-10.41.63-15.29-1.51-4.89-2.13-9.08-5.69-12.21-9.81-3.16-4.13-5.36-8.78-6.75-13.57-1.34-4.8-2.01-9.78-1.35-14.74z"/><path d="m450.24 67.47c-2.13.2-4.09.46-5.97.77-1.63 6.42-5.64 11.66-11.74 13.74-1.58.49-1.99-.04-.91-.61 5.22-3.22 8.83-7.53 10.34-12.85-2.79.46-5.29 1.02-7.5 1.73-1.1.3-2.12.16-3.76-1.26-.86-.69-.86-1.41.3-1.25 2.22.27 7.05-.14 11.37-.89.63-3.04.83-4.68.43-5.9-.64-.17-1.35-.42-2.23-.82-1.54 1.72-3.11 3.2-4.41 4-1.53.92-1.8.35-.64-.76 5.64-5.7 7.47-11.81 7.08-13.06-.51-1.43.15-1.77 2.5-.64 2.05 1.01 2.11 1.4 1.13 2.52-.42.44-1.18 1.54-1.96 2.89-.87 1.38-1.82 2.76-2.95 4.13.99.14 2.61-.21 5.57-1.3 1.11-.4 3.94-.65 4.81-.17.88.44.78 1.15-.67 1.74-1.32.43-4.17 1-6.31 1.29 1.5.98 1.46 1.45.88 2.38-.31.62-.62 1.61-.95 3.33 1.22-.18 2.23-.42 3.11-.7 1.94-.56 3.27-.47 3.89.03 1.14 1.04.98 1.46-1.41 1.65zm-1.92 11.4c-.61-.59-2.7-4.28-3.62-6.12-.41-.95-.21-1.41 1.04-.69 4.29 2.47 4.94 3.65 4.82 5.59-.14 2.16-1.4 2.25-2.24 1.23zm16.83-6.32c-.26.66-.27 1.38.19 1.75 1.02.92.9 1.46-.53 1.54-2.95.2-6.41.23-9.34.14-.39 3.23-.73 3.8-1.24 3.77-.65-.04-1.12-1.3-1-3.16.42-6.32.26-11.19-.82-12.61-.58-.93-.27-1.8 2.69-.13 2.39.41 6.95-.49 8.32-1.13 1.39-.71 1.87-.77 3.97.85 2.18 1.7 2.27 2.29.9 3.31-.96.71-1.6 2.02-3.13 5.68zm-4.55-7.69c-1.13.06-3.21.22-4.83.41-.16 2.53-.26 6.67-.22 9.3 5.63-.24 6.6-.6 6.87-1.47.53-1.49 1.29-4.45 1.6-6.59.24-1.72.09-1.89-3.43-1.66z"/><path d="m481.33 79.15c-.96 1.43-1.43 1.31-2.17.17-.98-1.43-.76-2.12.01-2.88 1.62-1.59 2.14-4.27 2.66-12.95.06-.84-.02-.93-.73-.68-.4.09-2.48.85-2.88 1.04-.98.45-2.28.66-3.34-.47-.85-.85-.83-1.15.51-1.28 3.61-.32 5.95-1.15 6.81-2.32.57-.77 1.51-.59 2.55-.1 2.1.98 2.12 1.27 1.2 2.15-1.61 1.58-2.66 5.04-3.08 12.75 1.61-.83 3.38-1.57 4.23-1.9 1.34-.59 1.76.07.59.89-2.17 1.47-5.14 3.88-6.37 5.57zm5-24.96c-1.12-.69-2.92-2.16-3.85-3.2-.77-.85-.3-1.33.68-1.23 3.82.36 4.88 1.36 5.33 2.45.58 1.56-.59 3.01-2.16 1.97zm8.05 20.24c-2.85 3.3-5.79 5.39-8.71 6.44-.75.24-.79-.39-.16-.86 1.62-1.04 4.2-3.46 5.94-5.55 1.17-1.45 1.75-3.02 1.78-4.07 0-.67.88-1 1.92-.22 1.97 1.48 1.78 1.77.86 2.67-.23.2-.96.87-1.62 1.6zm10.19-11.16c-.25.61-.23.82.38 1.46.57.63.53 1.26-.3 1.38-1.88.35-7.13.61-10.15.63-.11.97-.53 1.45-.91 1.39-.47-.03-.94-.78-.96-1.75-.1-5.77-.49-8.33-1.33-9.48-.98-1.46-.33-2.06 2.88-.46 2.33.11 7.23-.89 8.84-1.72 1.47-.71 1.86-.78 4.1.68 2.11 1.44 2 1.82.78 2.71-.96.7-2.04 2.16-3.32 5.17zm-5.48-5.94c-2.31.33-3.79.4-4.52.35 0 2.11-.03 5.12-.03 7.7 1.95.04 4.86-.21 6.26-.58 1.01-.28 1.29-.59 2.43-6.74.15-.8-1-1.16-4.13-.73zm8.37 23.17c-2.41-3.36-5.2-7.01-6.76-8.97-.48-.58-.11-.94.6-.6 6.47 2.86 8.58 5.5 8.52 8.54-.07 2.41-1.37 2.38-2.36 1.03z"/></g><path d="m317.14.01h2.99v141.19h-2.99z" fill="#d1d3d4"/></svg>