<svg viewBox="0 0 252.01 207.31" xmlns="http://www.w3.org/2000/svg"><path d="m127.14 37.55h-1.93c-4.65 0-9.03.13-13.17.34l-49.12 49.12c1.52 5.45 3.38 10.79 5.61 15.88l65.25-65.25c-2.16-.06-4.37-.09-6.65-.09zm-69.56 12.39-.77.43c.47 6.07 1.21 12.64 2.33 19.36l29.26-29.26c-18.57 3.22-28.36 8.11-30.81 9.47zm85.65 20.83 28.71-28.71c-5.2-1.18-11.33-2.27-18.41-3.08l-17.92 17.92c-.23.82-.51 1.51-.6 1.71 0 .01-.01.03-.02.04 2.42 1.72 3.69 4.26 3.67 7.31 1.19.79 3.05 2.31 4.58 4.81zm-48.56 43.56c.47-.97.91-1.89 1.21-2.55l.17-.38c1.44-3.2 2.72-5.94 3.96-7.1 1.33-1.25 3.99-2.67 7.29-3.92 1.42-.53 3.18-1.02 4.69-1.4-.73-.91-1.27-1.75-1.62-2.38-.26-.04-.53-.09-.79-.16-1.5-.42-2.65-1.76-3.07-3.59-.19-.83-.64-2.27-.96-3.32-.19-.61-.35-1.13-.43-1.41-.04-.15-.09-.31-.14-.49 0-.03-.02-.06-.03-.09l-29.08 29.08c2.76 4.42 5.76 8.64 8.88 12.61l8-8c-.19-.49-.32-.98-.32-1.42 0-.74.31-1.51 2.24-5.49zm17.81 15.46c-1.92-.41-4.14-.62-6.58-.62l-11.42 11.42c3.68 3.94 7.33 7.52 10.79 10.71l17.87-17.87c-2.8-1.14-7.55-2.97-10.66-3.63zm75.66-82.86-40.8 40.8c-.04.14-.08.28-.11.4-.08.28-.24.8-.43 1.42-.32 1.05-.77 2.48-.96 3.31-.42 1.83-1.57 3.17-3.07 3.59-.26.07-.54.12-.79.16-.36.62-.89 1.47-1.62 2.38 1.51.38 3.27.87 4.69 1.4 3.28 1.24 5.92 2.65 7.26 3.89l42.02-42.02c.53-4.1.93-8.09 1.22-11.88l-.77-.43c-.99-.54-3.17-1.66-6.62-3.02zm-28.23 72.89c0 1.08-.6 2.46-1.74 3.43.25 1.44.6 3.72.57 5.07-.01.57-.28 1.1-.72 1.45-.34.27-.76.41-1.18.41-.13 0-.27-.02-.4-.04-.04 0-3.58-.76-8.02-.94l-31.83 31.83c5.77 4.62 9.58 7.16 9.58 7.16s36.54-24.37 54.97-59.7c3.22-6.18 5.76-12.9 7.78-19.79l-29.46 29.46c.36.86.45 1.26.45 1.65zm-43.18-35.93c3.6 0 6.87 1.73 7.3 1.06.43-.68-3.7-2.29-7.02-2.29-2.61 0-3.39.74-3.03 1.2.33.43 1.3.04 2.75.04zm-10.54 35.25h-.28c-.3-.02-.56.24-.56.55s.24.57.54.58h.27s0 0 .01 0c.3 0 .54-.24.55-.55 0-.31-.23-.57-.54-.58zm-1.76-.02h-.24c-.31 0-.55.26-.54.57 0 .31.25.56.55.56h.24c.3 0 .55-.26.55-.57s-.25-.56-.55-.56zm15.92-28.67c1.53 0 1.68-.76 2.13-.67s1.54.72 1.54-1.07-1.36-2.56-1.67-2.68-.59-.59-.8-.87-1.25.02-1.76-.02c-.52-.05-.61-.28-.87-.47s-.42.09-.71.24c-.28.14-.47-.09-.7-.05-.24.05-.56-.05-.85-.26-.28-.21-.66-.02-.85.31s-.42.56-.54.59c-.12.02-.87.07-.87 1.03 0 1.06 1.57 2.33 2.3 2.73s2.12 1.2 3.64 1.2zm1.58-2.51c0-.26-.05-.51-.15-.74.67.36.96.84 1.07 1.18.08.23.02.3.01.33-.02.05-.13.13-.23.17-.39.12-.75.2-1.11.25.25-.33.41-.73.41-1.18zm-5.86-.8c.95-.22 1.76-.34 2.47-.4-.26.33-.42.74-.42 1.2 0 .27.05.52.15.75-1.4-.61-2.2-1.55-2.2-1.55zm3.57 32.31c.12.04.23.09.33.13.07.03.13.04.2.04.22 0 .43-.14.51-.36.11-.29-.03-.62-.31-.73-.11-.04-.22-.09-.34-.13-.28-.11-.6.04-.71.33s.04.62.32.73zm-13.65-2.86c.77 0 1.58.04 2.39.11h.05c.28 0 .53-.22.55-.51.03-.31-.2-.58-.5-.61-.85-.07-1.68-.12-2.49-.12-.31 0-.55.25-.55.56s.25.56.55.57zm5.11.47c.94.16 1.92.37 2.9.61.04.01.09.02.13.02.25 0 .47-.17.54-.43.07-.3-.11-.61-.41-.68-1-.25-2-.46-2.97-.62-.3-.05-.59.16-.64.46-.05.31.15.6.45.65zm-8.38 2.11h-.16c-.3.02-.54.29-.53.6.01.3.26.54.55.54h.18c.3-.02.54-.28.53-.59s-.26-.56-.58-.54zm34.35-33.68c-.12-.02-.35-.26-.54-.59s-.56-.52-.85-.31c-.28.21-.61.31-.85.26s-.42.19-.71.05c-.28-.14-.45-.42-.71-.24-.26.19-.35.42-.87.47s-1.55-.26-1.76.02-.49.75-.8.87c-.3.12-1.67.89-1.67 2.68s1.09 1.16 1.54 1.07.6.67 2.13.67 2.91-.8 3.64-1.2 2.3-1.67 2.3-2.73c0-.96-.75-1.01-.87-1.03zm-7.35 3.37c-.1-.03-.21-.12-.23-.17-.01-.03-.07-.1 0-.33.12-.33.4-.82 1.07-1.18-.09.23-.15.48-.15.74 0 .45.15.85.41 1.18-.36-.05-.73-.12-1.11-.25zm4.36-.17c.1-.23.15-.49.15-.75 0-.46-.16-.87-.42-1.2.71.06 1.52.18 2.47.4 0 0-.79.94-2.2 1.55zm-1.9 30.93c.07 0 .13-.01.2-.04.11-.04.22-.09.33-.13.29-.11.43-.44.32-.73s-.42-.44-.71-.33c-.12.04-.23.09-.34.13-.29.11-.43.44-.31.73.08.22.29.36.51.36zm-1.27 2.97c-.11.06-.16.09-.16.09-.26.16-.35.51-.19.77.1.18.29.28.48.28.09 0 .19-.03.28-.08 0 0 .05-.03.12-.07.27-.15.37-.49.22-.76-.15-.28-.48-.38-.75-.23zm-.38-2.26c.08 0 .16-.02.23-.05 0 0 .07-.03.18-.08.28-.13.41-.46.28-.74-.12-.29-.45-.41-.73-.29-.13.06-.2.09-.2.09-.28.13-.4.47-.27.75.09.2.29.33.5.33zm2 1.49c-.16.07-.3.13-.44.19-.28.12-.41.46-.28.74.09.21.29.34.5.34.07 0 .15-.02.22-.05.13-.06.27-.12.42-.18.28-.12.42-.45.3-.74s-.44-.42-.72-.3zm8.73-2.29c-.3.04-.52.32-.47.63.04.28.27.49.54.49h.07l.35-.05c.3-.04.52-.32.48-.63s-.32-.53-.62-.49c-.12.02-.24.03-.36.05zm8.33.76h.15s.02 0 .03 0c.29 0 .54-.23.55-.54 0-.31-.22-.57-.53-.59h-.16c-.31-.02-.56.22-.57.53s.22.57.53.59zm-11.85 1.02s.08 0 .12-.01c.43-.1.87-.2 1.31-.28.3-.06.5-.35.44-.66s-.35-.51-.65-.45c-.45.09-.91.19-1.35.29-.3.07-.48.37-.42.68.06.26.29.44.54.44zm-3.63 1.06c.06 0 .12 0 .18-.03.18-.06.37-.13.57-.2.29-.1.45-.42.35-.71-.09-.3-.41-.46-.7-.36-.21.07-.4.14-.59.21-.29.1-.44.43-.34.72.08.23.29.38.52.38zm4.11-4.69s.09 0 .13-.02c.98-.24 1.95-.45 2.9-.61.3-.05.51-.34.45-.65-.05-.31-.33-.51-.63-.46-.97.17-1.97.38-2.98.62-.29.07-.48.38-.41.68.06.26.29.43.54.43zm5.56 2.71h.04c.18-.02.36-.03.55-.04.3-.02.53-.29.51-.6s-.29-.55-.59-.53c-.19.01-.37.03-.56.04-.3.02-.53.3-.51.61.02.29.26.52.55.52zm-9.48-1.55c.06 0 .12 0 .17-.03.72-.24 1.44-.47 2.16-.68.29-.08.46-.4.38-.7s-.39-.47-.68-.39c-.74.21-1.48.45-2.21.7-.29.1-.45.42-.35.71.08.24.29.38.52.38zm-25.69.42c-.18-.01-.37-.03-.56-.04-.3-.02-.57.22-.59.53s.21.58.52.6c.18.01.37.03.55.04h.04c.29 0 .53-.22.55-.52.02-.31-.2-.58-.51-.61zm27.01-35.37c1.45 0 2.42.39 2.75-.04.35-.46-.42-1.2-3.03-1.2-3.31 0-7.45 1.61-7.02 2.29.43.67 3.7-1.06 7.3-1.06zm12.3 36.36h.23s0 0 0 0c.3 0 .55-.25.55-.56s-.24-.57-.54-.57h-.23s0 0 0 0c-.3 0-.55.25-.55.56s.24.57.55.57zm-4-3.55h.05c.82-.07 1.62-.11 2.39-.11.3 0 .55-.25.55-.57 0-.31-.25-.56-.55-.56-.8 0-1.64.04-2.49.12-.3.03-.53.3-.5.61.02.29.26.51.55.51zm2.52 2.43h-.28c-.31.01-.55.27-.54.58 0 .31.25.55.55.55h.29c.31-.01.55-.27.54-.58 0-.31-.26-.57-.56-.55zm-22.65-27.62c0-.27-.1-.48-.39-.48s-.54.36-.54 1.03.4.97 1.25 1.28c.81.3.71 1.19 1.98 1.26h.17c1.27-.07 1.17-.96 1.98-1.26.84-.32 1.24-.61 1.24-1.28s-.24-1.03-.54-1.03-.39.21-.39.48-.26.77-.72.77-.6.28-.73.42c-.12.12-.43.47-.93.47s-.8-.34-.93-.47c-.13-.14-.27-.42-.73-.42s-.72-.5-.72-.77zm-14.23-6.7c-.85.4-.7 1.67-.33 2.66.38 1.01 1.06 2.23 1.5 2.14.45-.09.17-.75-.02-1.2s-.89-1.81-.4-2c.5-.19.73.87.8 1.81s.26 1.25.73 1.06c.49-.19.16-1.93 0-2.59s-.78-2.59-2.28-1.88zm17.94 10.54c-.94 0-.71.47-1.32.47s-.38-.47-1.32-.47c-1.63 0-3.08.61-3.08 1.28 0 .44.33.52.59.52 1.15 0 .99.47 1.5.97s1 .98 2.31.98 1.8-.48 2.31-.98.34-.97 1.5-.97c.26 0 .59-.08.59-.52 0-.67-1.45-1.28-3.08-1.28zm13.01-6.07c.47.19.66-.12.73-1.06s.3-2 .8-1.81c.49.19-.21 1.55-.4 2s-.47 1.11-.02 1.2 1.12-1.13 1.5-2.14c.38-.99.52-2.26-.33-2.66-1.5-.71-2.12 1.22-2.28 1.88s-.49 2.39 0 2.59zm-14.34 10.11c-.54 0-1.26.57-1 .83s.52-.27 1-.27.73.54 1 .27c.26-.26-.45-.83-1-.83zm-15.08 20.14c-.12-.02-.24-.03-.36-.05-.3-.04-.58.18-.62.49s.18.59.48.63l.35.05s.05 0 .07 0c.27 0 .51-.21.55-.49.04-.31-.17-.59-.47-.63zm-35.49-93.46c-.23-.88-.43-1.59-.6-2.12s-.35-.93-.53-1.2-.38-.42-.6-.46-.5-.02-.83.07l-.68.18 2.12 8.2.68-.18c.33-.09.58-.2.75-.34s.27-.37.3-.7c.03-.32-.01-.75-.12-1.3s-.28-1.26-.51-2.14zm88.83-3.91c.27-.23.46-.62.55-1.18.18-1.09-.18-1.7-1.08-1.85l-.66-.11-.53 3.26.66.11c.44.07.79 0 1.07-.23zm12.51-.17h-.04s-2.31 5.35-2.31 5.35l1.92.47zm-49.8 13.66c43.35 0 64.44 10.35 68.54 12.62 1.18-17.31.24-30.14.24-30.14s-20.84-12.91-68.79-12.91h-1.93c-47.95 0-68.79 12.91-68.79 12.91s-.93 12.83.25 30.14c4.1-2.27 25.19-12.62 68.54-12.62h1.93zm48.28-16.88 4.32 1.06v13.96s-3.66-.89-3.66-.89l.21-2.39-2.73-.67-.91 2.22-3.65-.89 6.43-12.39zm-15.26-2.83 5.23.85c.66.11 1.22.31 1.67.6s.81.65 1.07 1.07.42.9.49 1.43.05 1.08-.04 1.66c-.23 1.39-.77 2.37-1.62 2.94-.86.57-2 .74-3.44.51l-1.22-.2-.83 5.1-3.49-.57 2.18-13.38zm-8.28-.94 3.51.38-1.46 13.48-3.51-.38zm-10.41-.8.8 10.29h.04s2.04-10.11 2.04-10.11l3.75.23-3.74 13.36-4.55-.28-2.1-13.71 3.75.23zm-61.75 15.68c-.12.68-.41 1.27-.86 1.77-.46.5-1.18.89-2.18 1.14l-4.96 1.29-3.4-13.13 4.96-1.29c.99-.26 1.81-.28 2.46-.06.64.22 1.18.6 1.62 1.13.43.54.78 1.19 1.05 1.96s.51 1.59.73 2.45.41 1.69.55 2.5.16 1.55.04 2.23zm13.33-2.69c-.1.66-.3 1.21-.62 1.64-.32.44-.75.78-1.29 1.04-.54.25-1.18.44-1.9.56-.74.12-1.4.15-1.99.09s-1.1-.25-1.55-.56c-.44-.31-.82-.76-1.12-1.35s-.54-1.35-.69-2.29l-1.47-8.77 3.48-.59 1.62 9.65c.11.65.28 1.07.5 1.25.22.19.5.25.82.2s.56-.21.71-.46.17-.7.06-1.35l-1.62-9.65 3.48-.59 1.47 8.77c.16.94.19 1.73.09 2.39zm10.8 1.11-.59-2.33-2.8.27-.13 2.4-3.74.37 1.96-13.82 4.42-.44 4.62 13.17-3.74.37zm12.65-.77-2.67-8.28h-.04s.32 8.37.32 8.37l-3.3.12-.51-13.55 3.95-.15 2.59 8.26h.04s-.32-8.35-.32-8.35l3.3-.12.51 13.55zm8.16-3.96c-.06-.87-.09-1.87-.08-3 0-1.14.08-2.15.23-3.02.14-.87.4-1.6.78-2.2.38-.59.89-1.04 1.55-1.34s1.51-.45 2.56-.44c.62 0 1.19.09 1.71.26.53.17.97.44 1.35.81s.67.84.88 1.42.31 1.28.3 2.1l-3.42-.03c0-.72-.05-1.25-.18-1.58-.12-.39-.39-.59-.81-.6-.29 0-.52.06-.7.2-.17.14-.3.38-.39.74-.09.35-.14.83-.17 1.43s-.05 1.36-.06 2.27 0 1.67.02 2.27.07 1.08.15 1.44.2.6.35.74c.16.14.37.21.63.21.19 0 .36-.03.5-.11.15-.07.27-.22.37-.42.1-.21.18-.5.24-.86.06-.37.09-.85.1-1.44h-1.25s.02-2.4.02-2.4l4.56.04-.06 7.37-2.39-.02-.07-1.2h-.04c-.12.29-.28.53-.49.72s-.45.34-.71.44c-.26.11-.54.18-.84.22s-.6.06-.9.06c-.9 0-1.61-.17-2.12-.49-.52-.32-.9-.78-1.16-1.38s-.42-1.33-.48-2.21zm-1.39 148.98 2.9 1.93 2.9-1.93c1.54-1.03 37.87-25.53 56.71-61.63 19.24-36.88 15.53-90.88 15.36-93.16l-.2-2.66-2.27-1.4c-.9-.56-22.67-13.69-71.54-13.69h-1.93c-48.86-.01-70.63 13.12-71.53 13.68l-2.27 1.4-.19 2.66c-.17 2.28-3.88 56.28 15.36 93.16 18.84 36.11 55.17 60.61 56.71 61.63zm-68.74-154.55.07-.97.82-.51c.87-.54 21.85-13.19 69.79-13.19h1.93c47.94 0 68.92 12.65 69.79 13.19l.82.51.07.97c0 .14.99 13.94-.35 31.97-1.24 16.69-4.79 40.54-14.64 59.41-18.45 35.36-55.23 60.16-55.6 60.4l-1.05.7-1.05-.7c-.37-.25-37.16-25.05-55.6-60.4-9.85-18.87-13.4-42.73-14.64-59.41-1.34-18.02-.36-31.83-.35-31.97zm41.75 104.33s-.81 4.12-.78 5.96c0 0 9.48-2.05 17.38-.35 4.85 1.04 13.29 4.69 13.29 4.69s8.45-3.66 13.29-4.69c7.9-1.69 17.38.35 17.38.35.04-1.83-.78-5.96-.78-5.96 1.34-.53 1.94-1.87 1.94-2.5s-2.33-5.15-3.28-7.26c-.95-2.12-2.57-5.82-3.7-6.88s-3.67-2.4-6.66-3.53c-3-1.13-7.76-2.08-7.76-2.08 2.89-2.36 4.16-5.29 4.16-5.29s.85 0 1.48-.18 1.41-.81 1.73-2.19 1.2-4.02 1.41-4.8c.21-.77.67-2.12.74-3.21s-.32-1.94-.81-2.54c-.5-.6-1.45-.74-1.45-.74.28-10.69-7.19-14.13-7.19-14.13.42-3.6-1.17-5.92-3.5-7.26-.7-.77-.11-1.44.07-1.88.21-.49.78-1.97.78-3s.49-3.21-1.37-3.21c-1.13 0-1.52.88-3.07 1.83s-2.08 1.27-2.08 2.47.04 2.15.04 2.15c-4.02.18-5.75 1.9-6.21 2.79-.46.88-.6.99-2.96 2.26s-2.05 2.54-2.05 2.54c-2.11 2.19-6.66 3.67-6.8 4.51-.14.85.74.95.74.95-1.78 1.75-.57 2.26-.4 2.32-.87 1.99-1.47 4.5-1.38 7.66 0 0-.95.14-1.45.74-.49.6-.88 1.45-.81 2.54s.53 2.43.74 3.21 1.09 3.42 1.41 4.8c.32 1.37 1.09 2.01 1.73 2.19s1.48.18 1.48.18 1.27 2.93 4.16 5.29c0 0-4.76.95-7.76 2.08s-5.54 2.47-6.66 3.53c-1.13 1.06-2.75 4.76-3.7 6.88s-3.28 6.63-3.28 7.26.6 1.97 1.94 2.5zm29.79-14.56c-7.54-.09-9.54-4.66-8.31-5.59s3.23 1.47 8.41 1.5c5.18-.03 7.18-2.44 8.41-1.5 1.23.93-.76 5.5-8.3 5.59h-.22zm25.08 3.34 2.88 12.55c-17.54-.14-27.28 6.96-27.28 6.96v-13.02c10.27-6.63 24.4-6.49 24.4-6.49zm-23.09-39.71c.44-.22 1.66-.11 3.85-.62 2.18-.52 2.88-2.09 3.35-2.07s-.18 1.9-1.75 3.03-3.3 1.27-4.01 1.31-2.21-.06-2.06-.68c.09-.34.24-.77.62-.96zm-2.92-.27c.23.18.27 1.14.08 1.36s-1.42.23-1.55.04c-.13-.2-.01-.39.45-.87.51-.53.79-.71 1.02-.53zm-3.27-1.49c.28-.25 1-.16 1.39-.05.39.12 1.18.24.15 1.14-1.02.9-1.36 1.08-1.65.16-.28-.92-.02-1.14.11-1.26zm-1.91-1.54c.33-.24.7-.49.96-.05.15.26.11.39-.14.57-.25.19-.59.43-.86.12-.2-.23-.29-.41.03-.65zm-2.6-2.62c.28-.39 1.04-1.07 1.28-1.03.27.04.41.58.54 1.18s.05 1.08-.19 1.32c-.25.25-.49.46-1.32.08-.82-.38-.6-1.16-.32-1.54zm.65 6.23c.16.68.11 1.54-.32 2.32-.42.78-.71 1.18-1.01 1.03-.3-.14-.23-.52-.3-.63-.07-.12-.42.21-.66-.16-.24-.38.35-.78.54-1.72s.43-1.29.81-1.59c.37-.29 1.25-.79 1.47-.6.18.15-.69.67-.53 1.35zm-3.65-3.19c1.25-.57 3.36-.26 3.38.19s-.78-.05-2.56 1.01c-1.79 1.06-2.44 1.69-2.63 1.48s.42-2.04 1.81-2.68zm-2.57 22.35c-.59 0-.21.54-.87.87s-1.22-1.32-2.21-4.04c-.99-2.73-.99-3.57-.42-4.37.56-.8 1.97.33 2.82 1.17.85.85 1.04 1.18 1.27 1.03.23-.14.19-.52-.23-1.03-.42-.52-.19-.38-.05-2.44.14-2.07.56-2.44.8-2.68.12-.12.26-.16.37-.55 0 0 .57-2.71 1.39-2.55s.16 1.06.99 1.06 1.32-.8 2.49-1.95c1.18-1.15 1.83-1.48 3.83-.96s2.3.59 2.3.59-1.01 2.84-.19 2.87c.82.02 2.44-2.82 2.44-2.82 4.89 0 6.86-1.41 9.45-1.41s2.91-.38 2.91 2.59.33 2.91.56 3.15c.24.24.66.61.8 2.68s.38 1.93-.05 2.44c-.42.52-.47.89-.23 1.03.23.14.42-.19 1.27-1.03.85-.85 2.26-1.98 2.82-1.17.56.8.56 1.65-.42 4.37-.99 2.73-1.55 4.37-2.21 4.04s-.28-.87-.87-.87-2.8 10.42-14.17 10.68h-.43c-11.37-.26-13.59-10.68-14.17-10.68zm-10.59 20.24s14.13-.14 24.4 6.49v13.02s-9.74-7.1-27.28-6.96zm-.18-93.37-.4 5.82 1.97-.19-1.53-5.63zm17.03 101.1c.23 0 .45-.15.52-.38.1-.29-.06-.62-.35-.71-.73-.25-1.47-.48-2.21-.7-.29-.08-.6.09-.68.39s.09.61.38.7c.72.21 1.45.44 2.16.68.06.02.12.03.18.03zm-3.32 1.35c-.45-.1-.9-.2-1.36-.29-.3-.06-.59.14-.65.45s.14.6.44.66c.44.09.88.18 1.32.28.04 0 .08.01.12.01.25 0 .48-.18.54-.44.07-.3-.12-.6-.41-.68zm7.33-.94s-.07-.03-.2-.09c-.28-.13-.61 0-.73.29-.12.28 0 .62.28.74.12.05.18.08.18.08.08.04.16.05.23.05.21 0 .41-.12.5-.33.13-.28 0-.62-.27-.75zm-3.64 2.03c-.19-.07-.39-.14-.59-.21-.29-.1-.6.06-.7.36-.1.29.06.61.35.71.2.07.39.13.57.2.06.02.12.03.18.03.23 0 .44-.14.52-.38.1-.29-.05-.62-.34-.72zm3.18 1.41s-.05-.03-.16-.09c-.27-.15-.6-.05-.75.23-.15.27-.05.62.22.76.08.05.12.07.12.07.09.05.19.08.28.08.19 0 .37-.1.48-.28.15-.27.07-.62-.19-.77zm-1.34-.68c-.14-.06-.28-.12-.44-.19-.28-.12-.6.02-.72.3-.12.29.02.62.3.74.15.06.29.12.42.18.07.03.15.05.22.05.21 0 .42-.13.51-.34.12-.29 0-.62-.28-.74zm112.39-42.63c.44-.4 1.05-.85 1.59-.96.54-.1 1.17-.09 1.77-.04.24.02.49.03.73.03.64 0 1.35-.11 2.22-.93.35-.33.59-.72.84-1.14.4-.66.86-1.4 1.81-1.98 1.21-.74 2.17-.89 2.82-.93-.48-.68-1.69-1.83-3.55-1.95h-.15c-.28-.03-.57-.05-.87-.05-.59 0-1.39.07-2.4.66-.55.31-1.1.73-1.68 1.29-.12.11-.29.16-.45.12s-.29-.16-.34-.32c-.19-.58 1.27-1.65 1.29-1.66.16-.1.3-.2.44-.3 1.41-.96 2.8-2.04 2.9-3.83.07-1.21-.45-2.17-1.06-3.29l-.25-.46c-.17-.32-.38-.79-.52-1.14-.31.21-.72.47-1.06.66l-.44.23c-1.13.59-2.11 1.1-2.73 2.15-.91 1.55-.36 3.22.28 4.8.04.11.08.2.12.29l.08.2c.35.89.34 1.57.32 1.76-.02.23-.2.43-.44.44-.23.02-.45-.14-.5-.37-.18-.78-.4-1.44-.68-2-.67-1.36-1.53-1.86-2.37-2.33l-.13-.07c-.73-.42-1.53-.64-2.38-.64-.7 0-1.28.15-1.65.29.52.4 1.23 1.06 1.81 2.33.46 1.01.43 1.88.4 2.65-.02.49-.04.95.07 1.42.33 1.46 1.04 1.87 1.95 2.39.48.27.97.56 1.44 1.02.39.39.64 1.1.78 1.68zm-212.81-34.44.16.23c.69 1.06.87 1.93.9 2.18.03.23-.11.46-.33.53-.23.07-.47-.04-.57-.25-.46-1.01-.95-1.83-1.49-2.51-1.31-1.68-2.63-2.1-3.9-2.5l-.2-.06c-.67-.22-1.37-.33-2.06-.33-1.83 0-3.23.75-3.83 1.19l.14.06c.79.36 1.96 1.01 3.15 2.61.88 1.18 1.08 2.34 1.25 3.35.11.67.22 1.3.5 1.92.88 1.92 2.04 2.3 3.38 2.73.71.23 1.44.46 2.17.93.67.43 1.25 1.48 1.59 2.21.46-.67 1.22-1.6 1.94-1.9.8-.34 1.57-.44 2.3-.54 1.39-.19 2.59-.36 3.8-2.1.38-.56.6-1.16.83-1.81.34-.97.73-2.08 1.81-3.09 1.46-1.38 2.73-1.81 3.56-2.02l.16-.04c-.63-.66-2.34-1.94-4.7-1.94-.31 0-.63.02-.95.07l-.21.03c-1.33.18-2.7.36-4.28 1.79-.65.58-1.27 1.31-1.9 2.22-.08.12-.23.2-.38.21-.15 0-.29-.06-.39-.18-.41-.52.92-2.15 1.19-2.43l.21-.21c.1-.1.2-.2.29-.3 1.65-1.71 3.22-3.58 2.84-6.08-.25-1.68-1.25-2.84-2.39-4.19l-.45-.53c-.36-.44-.84-1.1-1.13-1.54-.36.38-.92.93-1.37 1.32l-.52.44c-1.37 1.13-2.55 2.1-3.09 3.72-.81 2.4.42 4.52 1.74 6.48.08.13.17.25.25.37zm2.71 67.09c-.99-.15-1.89-.18-2.64-.11-1.91.17-2.88.96-3.82 1.73l-.14.12c-1.95 1.57-2.29 3.82-2.25 4.8l.06-.04c.66-.42 1.75-1 3.57-1.11.12 0 .24-.01.36-.01 1.16 0 2.01.37 2.83.72.56.24 1.09.47 1.7.56.28.04.56.06.81.06 1.34 0 2.06-.59 2.91-1.27.52-.43 1.07-.87 1.79-1.19.32-.14.74-.21 1.28-.21.38 0 .79.04 1.14.08-.27-.69-.58-1.68-.46-2.37.14-.79.44-1.42.73-2.03.54-1.14 1-2.13.28-3.89-.23-.56-.59-1.02-.96-1.51-.57-.75-1.22-1.59-1.46-2.92-.33-1.78-.05-2.93.22-3.73l.02-.05c-.97.2-3.03 1-4.11 3.32l-.08.17c-.52 1.09-1.05 2.23-.76 4.12.12.78.36 1.61.75 2.54.06.15.04.31-.04.44-.09.13-.23.21-.39.21-.62 0-1.19-1.79-1.28-2.14l-.03-.14c-.04-.17-.07-.33-.11-.51-.48-2.09-1.13-4.2-3.19-5.14-.66-.3-1.36-.44-2.2-.44-.7 0-1.41.09-2.17.19l-.6.08c-.53.06-1.22.09-1.68.1.11.46.25 1.13.31 1.65l.07.61c.18 1.59.34 2.97 1.29 4.17 1.3 1.64 3.27 1.87 5.21 1.87h.55c.17-.02.3 0 .42-.01h.23c1.23 0 1.99.33 2.13.4.21.1.32.34.25.57-.07.22-.29.36-.52.33zm186.41 17.86c-.21.02-.39-.08-.48-.26-.6-1.23-1.23-2.23-1.91-3.04-1.67-2.03-3.31-2.5-4.89-2.96l-.23-.07c-.77-.23-1.56-.35-2.35-.35-2.51 0-4.38 1.14-5.04 1.72.03.01.06.03.09.04l.25.1c.96.4 2.39 1.15 3.88 3.05 1.1 1.39 1.36 2.72 1.61 4.01.16.82.31 1.59.68 2.34 1.16 2.36 2.6 2.78 4.26 3.27.86.25 1.75.52 2.65 1.06.86.53 1.62 1.89 2.04 2.77.52-.82 1.45-2.08 2.36-2.5.96-.43 1.87-.58 2.76-.73 1.71-.29 3.19-.53 4.63-2.73.46-.7.7-1.45.96-2.25.4-1.24.82-2.53 2.08-3.78 1.71-1.71 3.23-2.28 4.23-2.55l.29-.08.06-.02c-.67-.73-2.79-2.38-5.78-2.38-.46 0-.92.04-1.38.12l-.24.04c-1.63.26-3.31.53-5.22 2.34-.78.74-1.52 1.65-2.26 2.79-.1.14-.26.22-.43.21s-.32-.12-.4-.27c-.2-.43.62-1.86 1.43-2.77.21-.22.4-.43.6-.65 1.97-2.15 3.84-4.51 3.29-7.58-.37-2.07-1.62-3.47-3.07-5.09l-.56-.62c-.5-.57-1.14-1.43-1.5-1.93-.4.45-1.12 1.21-1.71 1.73l-.62.54c-1.64 1.43-3.06 2.66-3.68 4.68-.92 2.99.66 5.56 2.35 7.93.11.15.21.29.31.44l.2.28c.9 1.29 1.21 2.54 1.14 2.8-.05.19-.21.33-.41.35zm-140.39 9.18c-.62-.46-2.17-1.27-4.15-1.27-.83 0-1.65.14-2.44.43l-.2.07c-1.4.48-2.85.98-4.26 2.87-.58.77-1.09 1.69-1.57 2.82-.07.17-.23.28-.41.29-.19.01-.35-.08-.44-.24-.2-.35.23-1.68.86-2.69l.43-.67c1.41-2.21 2.7-4.58 1.75-7.21-.64-1.77-1.97-2.81-3.5-4.02l-.59-.47c-.49-.39-1.18-1.04-1.59-1.45-.3.47-.79 1.22-1.22 1.76l-.46.58c-1.23 1.52-2.3 2.83-2.53 4.71-.35 2.79 1.44 4.81 3.3 6.64.1.11.2.2.3.29.09.09.18.18.27.26.97.98 1.34 1.88 1.43 2.13.08.22-.02.47-.23.58s-.46.05-.6-.14c-.72-.99-1.42-1.77-2.16-2.4-1.79-1.53-3.31-1.7-4.78-1.86l-.22-.02c-3.25-.39-5.54 1.46-6.25 2.29h.01l.23.05c.92.21 2.32.66 3.94 2.12 1.2 1.07 1.63 2.22 2.06 3.32.27.7.52 1.36.96 1.97 1.38 1.9 2.71 2.05 4.26 2.23.81.09 1.64.19 2.53.54.83.33 1.7 1.37 2.21 2.09.34-.81.96-2.02 1.7-2.53.79-.54 1.58-.81 2.35-1.08 1.47-.51 2.73-.96 3.66-3.11.3-.69.4-1.39.5-2.13.17-1.17.34-2.38 1.27-3.7 1.25-1.77 2.46-2.5 3.38-2.94l.22-.1zm148.64-108.6c.8.09 2.03.32 3.55 1.4 1.12.79 1.63 1.75 2.08 2.6.29.56.57 1.08.99 1.54 1.22 1.31 2.22 1.41 3.5 1.41h.47c.57 0 1.24.01 1.95.2.71.18 1.5.9 2.01 1.45.22-.72.61-1.72 1.15-2.19.62-.53 1.26-.85 1.88-1.15 1.16-.57 2.17-1.06 2.72-2.93.18-.6.19-1.19.21-1.82.02-.96.04-2.05.7-3.26.89-1.65 1.88-2.4 2.56-2.82l.07-.04c-.51-.26-1.5-.62-2.72-.62-.95 0-1.85.21-2.7.63l-.17.08c-1.11.54-2.26 1.1-3.24 2.8-.4.69-.74 1.51-1.03 2.5-.05.18-.2.31-.38.34-.19.03-.36-.05-.47-.2-.21-.3.02-1.47.46-2.4l.3-.6c.95-1.97 1.79-4.07.74-6.14-.7-1.4-1.91-2.13-3.3-2.98l-.55-.34c-.44-.28-1.02-.7-1.4-1-.21.43-.53 1.06-.81 1.52l-.33.52c-.88 1.39-1.63 2.59-1.64 4.16-.01 2.34 1.67 3.84 3.39 5.17.1.08.2.16.3.23l.23.17c.92.73 1.33 1.46 1.43 1.67s.04.47-.15.61c-.2.13-.45.11-.62-.07-.69-.75-1.36-1.33-2.03-1.78-1.48-.99-2.68-1.07-3.78-1.07h-.55c-2.59 0-4.3 1.6-4.88 2.4h.09zm-183.67 45.14c-.92.53-1.84 1.24-2.82 2.17-.12.11-.28.16-.44.12s-.29-.16-.34-.31c-.18-.54 1.2-1.85 1.99-2.41l.23-.15c.16-.11.33-.21.49-.33 2.39-1.62 4.73-3.46 4.91-6.56.12-2.08-.77-3.7-1.79-5.59l-.4-.74c-.33-.63-.77-1.61-1-2.2-.5.35-1.36.91-2.04 1.28l-.74.39c-1.9 1-3.54 1.86-4.6 3.66-1.57 2.68-.64 5.51.45 8.18.07.17.13.33.2.48l.13.33c.55 1.41.54 2.47.52 2.76-.02.24-.2.43-.44.45s-.45-.13-.5-.36c-.3-1.33-.68-2.43-1.15-3.36-1.15-2.33-2.61-3.16-4.02-3.97l-.22-.13c-1.25-.72-2.62-1.09-4.06-1.09-1.59 0-2.8.44-3.35.72.03.02.05.04.08.05l.21.14c.91.67 2.06 1.7 3.05 3.84.74 1.59.69 2.93.63 4.22-.03.83-.06 1.61.12 2.42.58 2.54 1.87 3.28 3.36 4.13.77.44 1.57.9 2.31 1.63.71.7 1.13 2.18 1.33 3.13.69-.67 1.86-1.67 2.84-1.86.86-.17 1.87-.14 2.83-.07.41.03.81.06 1.21.06 1.12 0 2.37-.2 3.87-1.63.6-.57 1.01-1.24 1.44-1.94.67-1.11 1.37-2.25 2.87-3.17 2.02-1.24 3.55-1.45 4.66-1.5h.31s.04 0 .06 0c-.55-1.01-2.68-3.57-6.38-3.81l-.24-.02c-.47-.03-.95-.07-1.46-.07-1.01 0-2.39.13-4.12 1.13zm173.81 18.48c1.14.13 2.7.46 4.66 1.86 1.46 1.04 2.1 2.25 2.71 3.42.39.75.77 1.46 1.35 2.09 1.8 1.96 3.38 1.96 4.9 1.96h.41c.88 0 1.74.02 2.68.27 1 .26 2.14 1.37 2.79 2.11.27-.95.81-2.45 1.58-3.12.81-.7 1.66-1.11 2.48-1.51 1.59-.77 2.96-1.44 3.72-4 .24-.82.26-1.62.29-2.47.03-1.33.07-2.7.93-4.27 1.17-2.16 2.48-3.15 3.37-3.71l.25-.15s.05-.03.07-.04c-.6-.36-2.05-1-3.97-1-1.28 0-2.51.29-3.67.85l-.23.11c-1.51.73-3.07 1.48-4.41 3.79-.55.96-1.01 2.06-1.4 3.37-.05.18-.2.31-.39.34s-.37-.06-.47-.21c-.19-.29 0-1.7.63-3.04l.4-.81c1.3-2.66 2.44-5.5 1.01-8.34-.96-1.91-2.58-2.91-4.46-4.07l-.72-.45c-.65-.41-1.53-1.07-2.02-1.46-.26.55-.75 1.51-1.17 2.19l-.46.72c-1.18 1.86-2.2 3.47-2.22 5.61-.03 3.19 2.25 5.23 4.58 7.05.14.11.28.22.41.32l.29.22c1.21.96 1.73 1.91 1.87 2.18.1.21.04.47-.15.61-.2.13-.46.11-.62-.06-.94-1.02-1.84-1.81-2.74-2.41-2.02-1.36-3.61-1.47-5.2-1.47h-.67c-3.76 0-6.17 2.5-6.81 3.48h.1l.28.02zm-68.56 101.46c-.11-.69-.21-1.27-.31-1.72-.09-.46-.19-.81-.3-1.07s-.23-.43-.37-.52-.31-.11-.51-.08-.36.11-.46.24c-.1.12-.16.33-.18.61s0 .65.05 1.11.14 1.04.25 1.73.21 1.27.31 1.72c.09.46.19.81.3 1.07s.23.43.37.52.31.11.51.08.35-.11.46-.24.16-.33.18-.61 0-.65-.05-1.11-.14-1.04-.25-1.73zm-9.97-.65c-.04-.43-.1-.76-.19-.99s-.21-.38-.37-.45-.37-.1-.63-.09h-.54s.18 6.53.18 6.53h.54c.26-.02.47-.06.62-.14s.27-.23.35-.47.12-.57.13-1 0-.99 0-1.7c-.02-.7-.05-1.27-.08-1.7zm-38.79-18.62.74.35c2.24 1.06 4.53 2.01 6.87 2.86l.78-4.42c-21.48-18.55-51.51-24.01-78.12-14.28l-3.75 21.29c23.05-8.43 48.66-5.46 69.06 7.54l4.43-13.35zm-61.99-2.92-1.59-8.99 2.34-.41 1.25 7.08 2.88-.51.34 1.92-5.23.92zm10.14-1.4-.39-1.57-1.89.17-.1 1.61-2.52.23 1.39-9.3 2.98-.27 3.04 8.89-2.52.23zm9.49-.21h-2.61s-1.57-5.65-1.57-5.65h-.03l-.02 5.64h-2.23s.03-9.14.03-9.14h2.66s1.52 5.64 1.52 5.64h.03l.02-5.63h2.23s-.03 9.14-.03 9.14zm7.96-5.55-2.29-.22c.05-.48.04-.84-.03-1.07-.06-.27-.23-.42-.51-.45-.19-.02-.35.01-.48.1-.12.08-.22.24-.3.47s-.15.55-.2.95c-.06.4-.11.91-.17 1.52s-.1 1.12-.12 1.53c-.02.4-.02.73.01.97s.1.42.19.52c.1.1.23.16.41.18.13.01.24 0 .35-.04.1-.04.19-.13.28-.26.08-.13.15-.32.21-.56s.11-.56.15-.96l-.84-.08.15-1.6 3.06.3-.48 4.94-1.6-.16.03-.81h-.02c-.1.19-.22.34-.37.45s-.32.2-.5.25c-.18.06-.37.09-.57.1-.2 0-.41 0-.61-.01-.6-.06-1.07-.21-1.4-.46s-.56-.58-.7-.99c-.14-.42-.2-.92-.19-1.51s.05-1.26.12-2.02.18-1.44.33-2.01c.15-.58.36-1.05.65-1.43s.66-.64 1.12-.81c.46-.16 1.04-.21 1.74-.14.42.04.79.13 1.14.28.34.14.63.35.86.62s.4.61.51 1.01.13.88.08 1.43zm5.79 6.84c-.3.2-.66.32-1.06.35s-.84 0-1.33-.09-.92-.23-1.28-.4c-.36-.18-.64-.42-.85-.71s-.34-.67-.39-1.12-.02-.98.1-1.61l1.11-5.88 2.34.44-1.23 6.47c-.08.44-.08.74.02.91s.26.28.47.32c.22.04.4 0 .56-.12.15-.12.27-.4.35-.84l1.23-6.47 2.34.44-1.11 5.88c-.12.63-.29 1.14-.5 1.53s-.47.69-.77.9zm8.13 2.74-2.44-.69.2-1.6-1.82-.52-.67 1.47-2.44-.69 4.63-8.18 2.88.82-.35 9.4zm4.74 1.82.24-.77h-.02c-.14.15-.3.26-.48.33s-.36.11-.55.11-.38-.01-.58-.06c-.2-.04-.39-.1-.58-.18-.56-.22-.97-.49-1.22-.81s-.39-.71-.41-1.14c-.02-.44.05-.94.22-1.51s.39-1.2.66-1.91c.28-.72.56-1.33.85-1.85s.63-.92 1.01-1.2c.38-.29.81-.45 1.3-.48.48-.04 1.06.07 1.72.32.39.15.73.34 1.02.57s.51.51.66.83.22.69.22 1.1-.11.88-.31 1.4l-2.15-.83c.17-.45.26-.8.26-1.04.02-.28-.11-.47-.37-.57-.18-.07-.35-.08-.49-.04-.14.05-.28.17-.42.37s-.29.49-.45.86-.35.84-.57 1.42c-.22.57-.39 1.05-.53 1.44-.13.38-.21.7-.25.94-.03.24-.02.43.05.55s.18.22.35.29c.12.04.23.06.34.05s.22-.07.34-.18c.11-.11.23-.27.36-.48.12-.22.26-.51.4-.89l-.79-.3.58-1.51 2.87 1.1-1.78 4.63-1.5-.58zm9.64-1.74-.82 1.68-2.55-1.24-.8 1.63 2.83 1.38-.85 1.75-4.97-2.42 4-8.21 4.87 2.37-.85 1.75-2.73-1.33-.68 1.4 2.55 1.25zm-16.4-4.18.43-3.91h-.02s-1.68 3.55-1.68 3.55l1.28.36zm121.97-5.26c-.19-.12-.46-.15-.81-.07l-.45.1.47 2.1.46-.1c.33-.08.56-.23.67-.46s.13-.5.06-.82c-.08-.38-.22-.62-.41-.75zm-35.03 7.99.81 4.58c1.62-.62 3.22-1.29 4.79-2.01l.73-.34 4.56 13.73c20.86-13.83 47.43-17 71.15-7.98l-3.75-21.29c-26.53-10.09-56.62-4.95-78.29 13.3zm22.5 3.48-2.83-6.19h-.02s1.68 6.73 1.68 6.73l-1.56.71-3.98-5.66h-.02s2.83 6.2 2.83 6.2l-2.03.93-3.8-8.31 3.1-1.42 3.12 4.52h.02s-1.38-5.33-1.38-5.33l3.09-1.41 3.8 8.31-2.03.93zm8.36-3.98c-.12.44-.36.81-.7 1.11s-.8.54-1.37.73c-.58.19-1.09.27-1.54.23s-.86-.19-1.22-.47-.69-.69-.98-1.22c-.29-.54-.57-1.21-.84-2.02s-.44-1.52-.53-2.12c-.08-.61-.06-1.13.06-1.57s.36-.81.7-1.11c.34-.29.8-.54 1.37-.73.58-.19 1.09-.27 1.54-.23.45.03.86.19 1.22.47s.69.69.98 1.23.57 1.21.84 2.02.44 1.52.53 2.12c.08.61.06 1.13-.06 1.57zm6.14-.58c-.08-.1-.16-.23-.22-.38s-.12-.3-.17-.46c-.05-.15-.09-.3-.13-.45-.04-.14-.07-.26-.09-.35l-.13-.6c-.06-.25-.12-.46-.18-.62s-.13-.28-.22-.36c-.08-.08-.18-.13-.28-.14-.1-.02-.23 0-.37.02l-.61.14.81 3.57-2.32.52-2.01-8.91 3.63-.82c.44-.1.83-.13 1.17-.08.34.04.63.15.87.32s.44.39.59.66.27.58.35.92c.13.6.12 1.11-.04 1.53s-.49.73-1.01.94v.03c.57-.08 1 .03 1.29.33.29.29.49.74.63 1.34l.17.76c.03.12.05.24.08.36s.06.24.09.35.07.21.11.29c.04.09.07.16.11.2s.09.08.13.12.11.07.19.09l.03.12zm7.84-1.28-.44-1.56-1.88.24-.04 1.62-2.51.32 1.06-9.34 2.97-.38 3.36 8.78-2.51.32zm3.35-.33-.36-9.13 2.38-.09.28 7.18 2.93-.12.08 1.94-5.3.21zm8.72-.1-2.38-.06.23-9.13 2.38.06zm7.5-6.56-1.79-.16-.63 7.08-2.37-.21.63-7.08-1.78-.16.18-2.01 5.94.53zm4.87 4.37-.62 3.54-2.34-.41.62-3.54-1.33-5.86 2.57.45.33 3.29h.03s1.43-2.98 1.43-2.98l2.57.45-3.25 5.05zm-26.55-4.43-.16 3.93 1.32-.17-1.14-3.76h-.03zm-14.66 5.99c-.19-.58-.36-1.06-.5-1.45-.14-.38-.28-.67-.41-.88s-.26-.34-.39-.4c-.13-.05-.28-.05-.45 0s-.29.14-.36.27c-.07.12-.1.31-.07.55.02.24.09.56.2.95s.26.88.46 1.46c.19.58.36 1.06.5 1.44s.28.67.41.88.26.34.39.4.28.06.45 0 .29-.15.36-.27.1-.31.07-.55c-.02-.24-.09-.56-.2-.95s-.26-.88-.46-1.46zm-56.75 14.94c-11.99 0-24.04-2.64-34.9-7.64l-6.01 18.1c12.4 7.15 26.54 10.93 40.92 10.93s27.96-3.63 40.17-10.5l-6.03-18.18c-10.65 4.77-22.44 7.29-34.14 7.3zm-24.56 12 1.4-6.94h-.03s-3.12 6.34-3.12 6.34l-2.82-.96 1.67-10.46 2.49.85-1.55 7.1h.03s3.25-6.51 3.25-6.51l2.33.79-1.32 7.18h.03s3.02-6.59 3.02-6.59l2.49.85-5.05 9.31zm9.98 2.57-2.66-.55 2.11-10.22 2.66.55zm10.6-6.1-2.53-.26.03-.25c.03-.31 0-.58-.11-.81-.1-.23-.29-.36-.55-.39-.29-.03-.51.04-.67.22s-.25.38-.27.61c-.04.34.05.62.24.84.2.22.45.42.77.6.31.18.65.37 1.02.55.36.19.7.42 1 .7s.54.62.72 1.04c.18.41.23.94.17 1.57-.11 1.1-.51 1.88-1.2 2.33-.68.45-1.62.61-2.81.48-.56-.06-1.05-.16-1.47-.31s-.77-.35-1.04-.62c-.27-.26-.47-.59-.58-.97-.12-.38-.15-.85-.09-1.39l.04-.36 2.62.27-.03.25c-.05.45 0 .77.15.96.15.2.35.31.61.34.28.03.51-.04.68-.22s.27-.41.3-.69c.04-.34-.04-.62-.23-.84s-.43-.42-.73-.59-.63-.35-.98-.54c-.35-.18-.68-.41-.97-.67-.29-.27-.52-.6-.69-1s-.22-.9-.16-1.52c.11-1.06.48-1.83 1.09-2.33.62-.49 1.5-.68 2.65-.56 1.18.12 2.01.47 2.49 1.03s.65 1.4.54 2.52zm9.88 4.09c-.03.63-.15 1.19-.36 1.68s-.53.88-.95 1.18c-.43.3-1.04.46-1.83.48l-3.95.11-.28-10.44 3.95-.11c.79-.02 1.41.11 1.85.38.45.28.79.65 1.02 1.13s.38 1.03.45 1.65c.07.63.11 1.28.13 1.96s.01 1.34-.02 1.97zm9.73.87c-.22.47-.55.85-.99 1.12s-1 .46-1.68.57-1.28.11-1.78-.02c-.5-.12-.93-.37-1.29-.75s-.65-.9-.89-1.56-.43-1.47-.58-2.43-.22-1.79-.21-2.49c.02-.7.13-1.29.35-1.76s.55-.85.99-1.12 1-.46 1.68-.57 1.28-.11 1.78.02c.5.12.93.37 1.29.75s.65.9.89 1.56c.23.66.43 1.47.58 2.43.16.96.22 1.79.21 2.49-.02.7-.13 1.29-.35 1.76zm11.34-2.07-2.38-7.4h-.03s1.01 7.86 1.01 7.86l-1.87.6-3.76-6.96h-.03s2.38 7.41 2.38 7.41l-2.42.78-3.2-9.94 3.7-1.19 2.94 5.55h.03s-.85-6.23-.85-6.23l3.7-1.19 3.2 9.94-2.42.78zm-135.91-24.86 2.09-11.87.14-.78.74-.27c1.92-.7 3.87-1.32 5.83-1.87l.29-2.25-23.6-3.08 8.01 10.16-10.35 7.76zm19.48-7.6-.3 3.92 1.32-.12-1-3.8h-.03zm196.92-5 .73.28.13.77 2.02 11.43 15.88-2.07-10.36-7.76 8.01-10.16-23.6 3.08.28 2.17c2.33.65 4.63 1.41 6.91 2.27zm-3.61-73.34c.06-.32.13-.64.19-.95.56-2.41.83-4.83 1.14-7.2 0-.04.01-.09.02-.13-.32-.28-.67-.5-1.04-.71-.14-.08-.28-.17-.43-.25-.04.3-.09.59-.13.89-.25 1.64-.49 3.32-.82 4.99.28 1.57 0 3.11-.53 4.59.53-.52 1.06-.91 1.6-1.23zm-1.79-19.84c.06 0 .12.01.19.01-.24-4.27-1.94-11.53-10.35-13.83 0 0-3.43 11.82 4.99 20.69l-.83-9.99 3.55 3.69c.6-.36 1.65-.58 2.46-.58zm-3.2-39.32c-1.04-1.11-1.82-2.45-1.82-4.21.01-1.85.88-3.22 1.79-4.66l.32-.51c.4-.65.88-1.66.93-1.78.06-.22.3-.39.57-.39.13 0 .32.08.42.19 0-.01-.01-.02-.01-.02.09.08.96.77 1.62 1.18l.54.33c.52.32 1.03.63 1.51.98-1.01-4.07-3.42-8.44-8.91-10.49 0 0-4.54 8.52 2.56 19.3.15.03.31.06.47.1zm7.35 20.71c-.24-3.17-.52-5.91-.83-8.16 0-.01 0-.03 0-.04-.16-.18-.36-.38-.58-.58.03.24.05.48.08.72.24 2.24.44 4.99.59 8.15.08 3.17.21 6.73 0 10.63 0 2.74-.26 5.64-.54 8.67l.11.06c.38.21.77.46 1.16.76.21-3.34.41-6.53.33-9.52.08-3.93-.15-7.51-.33-10.69zm3.87 46.68c-.02.88-.04 1.78-.32 2.72-.89 2.96-2.58 3.78-4.22 4.58-.27.13-.54.27-.82.41-.28.86-.39 1.39-.39 1.39l9-5.86-5.69 10.9c13.36-6.95 13.53-19.18 13.53-19.18-4.97.11-8.53 1.93-11.06 4.22-.01.27-.02.54-.03.81zm4.14-29.87c.36.79.61 1.61.55 2.58-.05.89-.36 1.62-.79 2.26l3.79-2.66-1.97 3.6c1.61.3 2.74 1.23 3.37 1.97 2.27-2.91 4.32-7.51 4.83-14.76 0 0-4.65.98-9.77 7.02zm-2.31 56.03s-5.98-1.82-13.28 3.36c1.73.67 2.96 1.71 3.4 2.34.14.19.28.45.19.72-.1.36-.47.45-.95.58l-.27.07c-.96.27-2.27.78-3.81 2.31l6.41-2.51-8.93 10.35s13.37.85 17.24-17.23zm3.98-83.69-2.92 10.63s10.77-4.47 6.96-20.44c0 0-9.14 3.53-10.92 17.86zm-54.86 115.8 3.33-16.17 1.43 14.45c7.28-18.35.26-25.91.26-25.91-13.58 13.97-5.01 27.64-5.01 27.64zm30.24-28.7c.29-.6.58-1.2.88-1.81 1.14-2.36 2.35-4.7 3.19-7.21 1.27-3.36 2.6-6.68 3.73-10.06-.36-.29-.73-.52-1.04-.6-.34-.09-.68-.14-1.01-.18-1.18 3.29-2.57 6.53-3.88 9.79-.47 1.29-1.04 2.52-1.65 3.73.06.21.12.43.16.66.44 2.46-.43 4.45-1.71 6.22.46-.24.9-.41 1.34-.55zm5.66-79.32-3.74-9.03 7.48 6.65s.03-1.9-.74-4.36c-.84-.19-1.69-.61-2.59-1.58-.51-.55-.83-1.16-1.14-1.74-.44-.83-.85-1.61-1.78-2.27-1.32-.94-2.35-1.15-3.1-1.23l-.18-.02c-.41-.03-.73-.06-.9-.36-.16-.3-.02-.6.14-.86.21-.34.58-.79 1.07-1.23-.92-.38-1.92-.7-3.02-.95 0 0-1.78 10.73 8.49 16.97zm-24.6 108.58c2.78-3.46 5.73-7.13 8.6-11.05.38-.63.77-1.26 1.16-1.9-.29-.42-.6-.8-.9-.99-.57-.34-1.16-.57-1.75-.75-.34.53-.68 1.06-1.01 1.59-2.73 3.9-5.67 7.42-8.22 10.98-1.07 1.56-2.26 2.92-3.46 4.22 1.44-.23 2.88-.42 4.34-.56.42-.49.84-.99 1.24-1.53zm20.22 2.24c1.99-2.93 2.73-5.43 2.73-5.43-9.71-1.83-15.74 1.34-19.12 4.35 1.02-.04 2.04-.07 3.06-.07 4.5 0 8.95.39 13.33 1.14zm22.73-79.67c.59-.36 1.22-.82 1.87-1.38-.26.11-.54.25-.85.43-.46.28-.76.6-1.02.95zm-27.3 13.5h.69c.62 0 1.26.02 1.94.12v-.12s.05.12.05.12c.46.07.93.17 1.42.33-1.57-1.55-2.81-3.44-2.79-5.96.01-1.18.29-2.21.71-3.18-.82-.58-1.72-1.11-2.75-1.56 0 0-1.58 4.61-1.26 10.45.62-.14 1.29-.22 1.99-.22zm-182.61-29.19.73-.39c.93-.51 2.17-1.37 2.25-1.43.05-.07.22-.14.39-.14.34 0 .61.25.63.57.01.02.08.19.18.42.12-3.86-.68-6.63-.68-6.63-11.3 3.09-10.49 15.1-10.31 16.84.04.03.09.07.13.1l.79-.82c-.16-1.49.03-3.01.9-4.5 1.19-2.03 3.03-3 4.98-4.02zm-10.84 7.16c.47.13.92.31 1.37.51-.3-3.27-.59-6.4-.6-9.35 0-.13 0-.26-.01-.39-.11.22-.31.32-.48.32-.25 0-.46-.18-.52-.45-.01-.03-.03-.09-.06-.15v.64c-.08 2.79.1 5.76.29 8.86zm41.15 69.8.19-.07c.16-.06.33-.11.5-.15l.04-.35.07.32c.71-.19 1.43-.29 2.16-.29 1.19 0 2.27.27 3.15.62-.92-3.77-2.99-7.93-7.06-12.12 0 0-1.7 1.83-2.56 5.88.43.55.8 1.17 1.07 1.91.75 2.06.34 3.92-.48 5.65 1.01-.74 2-1.08 2.92-1.39zm-49.67-96.09-1.13-4.1 3.75 4.38c.09.03.19.04.28.07l.19.06c.71.23 1.46.48 2.24.93-2.48-12.16-10.5-15.25-10.5-15.25-1.71 7.18-.47 12.03 1.41 15.2.75-.53 2.09-1.17 3.76-1.29zm35.34 113.37c1.1 0 2.2.03 3.29.07-3.37-3.03-9.4-6.22-19.15-4.38 0 0 .74 2.49 2.72 5.42 4.32-.73 8.71-1.11 13.14-1.11zm-32.62-77.18-5.72-10.46 7.76 5.46c-.78-1.35-1.61-2.09-2.28-2.58l-.19-.13c-.42-.29-.72-.5-.72-.88.02-.36.53-.72 1.26-1.02-5.94-8.76-12.06-10.05-12.06-10.05 1.25 17.91 11.95 19.66 11.95 19.66zm12.45-59.38-.41 11.34c9.34-11.81 4.16-21.53 4.16-21.53-11.71 4.38-9.41 19.33-9.41 19.33l5.65-9.15zm.16 18.74c.29.57.5 1.19.61 1.89.13.83.06 1.6-.12 2.32l5.76-5.12-2.87 6.91c.62.01 1.2.1 1.73.24 7.35-6.3 5.89-15.09 5.89-15.09-6.53 1.48-9.57 5.43-10.99 8.85zm17.11 90.82 2.37-14.21 2.4 13.63c6.8-12.85-1.47-24.93-1.47-24.93-10.99 13.75-3.31 25.52-3.31 25.52zm21.51 14.99c-.8 1.12-.95 2.17-1.11 3.28-.07.47-.14.96-.27 1.45l1.15 5.59s3.29-5.26 2.55-12.59c-.69.42-1.5 1.09-2.33 2.26zm-9.46 12.56c1.2.14 2.39.3 3.58.49-.78-.84-1.55-1.71-2.3-2.64-.52.48-1.02 1.53-1.28 2.15zm145.24-32.62c.06.02.12.02.18.04l.23.07c.65.19 1.33.4 2.04.71l.35-1.99c-.25-1.13-.26-2.34.13-3.61.2-.66.49-1.24.82-1.77l.46-2.59.27 1.59c.71-.85 1.55-1.59 2.42-2.35l.61-.54c.24-.22.51-.48.76-.74-.86-2.9-2.4-6.03-5-9.27 0 0-6.43 9.41-3.28 20.45zm-169.64 15.51-8.93-10.35 13.1 5.13c-10.39-15.38-21.41-12.01-21.41-12.01 3.87 18.08 17.24 17.23 17.24 17.23zm-19.61-36.59s.02-.01.08-.01c.41 0 1.22-.02 1.81-.09l.59-.08c.07 0 .14-.02.22-.03l-1.75-3.35 5.04 3.28c.48.09.94.22 1.38.42 1.04.47 1.76 1.16 2.3 1.98l.29.19s-2.83-13.82-16.84-14.14c0 0 .1 7.45 6.5 14.03-.12-.66-.28-1.35-.31-1.43-.06-.12-.04-.33.07-.51.13-.21.38-.32.63-.26zm11.74-8.59c.5 2.29 1.23 4.55 1.88 6.85.65-.45 1.31-.77 1.88-.94-.66-2.14-1.39-4.25-1.9-6.38-.19-.86-.39-1.71-.58-2.56-.24-.03-.46-.22-.46-.57-.03-.32-.48-2.58-1.2-3.29-.38-.37-.79-.67-1.21-.94.03.15.06.29.09.44.49 2.43 1 4.9 1.5 7.39zm9.4 21.29c-.5-1.25-1.02-2.5-1.53-3.75-.14.61-.38 1.15-.63 1.68s-.47 1.04-.6 1.63c.19.49.38.99.56 1.48.84 2.52 2.05 4.86 3.19 7.21 1.15 2.36 2.28 4.71 3.41 7.04 1.81 3.33 3.81 6.49 5.74 9.61.65-.09 1.34-.1 2.08-.02l.21.02c.5.06 1.03.12 1.58.23-2.34-3.71-4.86-7.45-7.18-11.4-1.17-2.25-2.34-4.51-3.52-6.78s-2.43-4.53-3.32-6.96zm5.23-30.68c-.44.73-.9 1.48-1.59 2.14-1.75 1.66-3.27 1.89-4.53 1.89-.34 0-.67-.02-1.01-.05-2.59 6.69-.56 14.29-.56 14.29l5-12.18-.55 13.68c6.5-7.55 5.46-17.21 4.53-21.59-.52.56-.9 1.18-1.29 1.81z" fill="#ec008c"/></svg>